<svg width="63" height="63" fill="none" xmlns="http://www.w3.org/2000/svg"><circle cx="31.5" cy="31.5" r="31.5" fill="#F6F6F6"/><path d="M39.923 35.62a4.164 4.164 0 0 0-4.16 4.16 4.164 4.164 0 0 0 4.16 4.16 4.164 4.164 0 0 0 4.16-4.16 4.164 4.164 0 0 0-4.16-4.16Zm0 6.24a2.082 2.082 0 0 1-2.08-2.08c0-1.147.933-2.08 2.08-2.08s2.08.933 2.08 2.08-.933 2.08-2.08 2.08ZM25.711 35.62a4.164 4.164 0 0 0-4.16 4.16 4.164 4.164 0 0 0 4.16 4.16 4.164 4.164 0 0 0 4.16-4.16 4.164 4.164 0 0 0-4.16-4.16Zm0 6.24a2.082 2.082 0 0 1-2.08-2.08c0-1.147.933-2.08 2.08-2.08s2.08.933 2.08 2.08-.933 2.08-2.08 2.08ZM42.725 23.713a1.04 1.04 0 0 0-.93-.572h-5.477v2.08h4.836l2.832 5.632 1.858-.935-3.12-6.205Z" fill="#023333"/><path d="M36.803 38.774h-7.868v2.08h7.868v-2.08ZM22.591 38.774h-3.605a1.04 1.04 0 1 0 0 2.08h3.605a1.04 1.04 0 1 0 0-2.08ZM47.781 32.416l-2.045-2.634a1.038 1.038 0 0 0-.821-.402h-7.557V22.1a1.04 1.04 0 0 0-1.04-1.04H18.986a1.04 1.04 0 1 0 0 2.08h16.292v7.28c0 .574.466 1.04 1.04 1.04h8.088l1.514 1.95v5.364h-2.877a1.04 1.04 0 1 0 0 2.08h3.917a1.04 1.04 0 0 0 1.04-1.04v-6.76c0-.23-.077-.455-.219-.638ZM22.522 33.505h-4.784a1.04 1.04 0 1 0 0 2.08h4.784a1.04 1.04 0 0 0 0-2.08ZM24.914 29.415H16.04a1.04 1.04 0 1 0 0 2.08h8.874a1.04 1.04 0 1 0 0-2.08Z" fill="#023333"/><path d="M26.612 25.324h-8.874a1.04 1.04 0 1 0 0 2.08h8.874a1.04 1.04 0 1 0 0-2.08Z" fill="#023333"/></svg>