<svg width="63" height="63" fill="none" xmlns="http://www.w3.org/2000/svg"><circle cx="31.5" cy="31.5" r="31.5" fill="#F6F6F6"/><path d="M30.13 18.494c-6.405 0-11.622 5.218-11.622 11.623 0 6.405 5.217 11.632 11.622 11.632 2.736 0 5.252-.959 7.24-2.55l4.842 4.838a1.294 1.294 0 0 0 1.831-1.829l-4.84-4.84a11.574 11.574 0 0 0 2.552-7.251c0-6.405-5.22-11.623-11.625-11.623Zm0 2.584c5.01 0 9.04 4.03 9.04 9.039 0 5.009-4.03 9.049-9.04 9.049a9.027 9.027 0 0 1-9.039-9.05c0-5.008 4.03-9.038 9.04-9.038Z" fill="#023333"/></svg>