<svg width="63" height="63" fill="none" xmlns="http://www.w3.org/2000/svg"><circle cx="31.5" cy="31.5" r="31.5" fill="#F6F6F6"/><path d="M24.113 46.938h13.775a5.319 5.319 0 0 0 5.313-5.313v-21.25a5.319 5.319 0 0 0-5.313-5.313H24.113a5.319 5.319 0 0 0-5.312 5.313v21.25a5.319 5.319 0 0 0 5.312 5.313Zm-3.187-26.563a3.19 3.19 0 0 1 3.187-3.188h13.775a3.19 3.19 0 0 1 3.188 3.188v21.25a3.19 3.19 0 0 1-3.188 3.188H24.113a3.19 3.19 0 0 1-3.187-3.188v-21.25Z" fill="#023333"/><path d="M26.75 23.57h8.5c1.788 0 3.188-1.092 3.188-2.486v-1.436a1.062 1.062 0 1 0-2.126 0l.005 1.41a1.3 1.3 0 0 1-1.067.387h-8.5a1.392 1.392 0 0 1-1.063-.361v-1.436a1.062 1.062 0 1 0-2.125 0v1.436c0 1.394 1.4 2.486 3.188 2.486ZM23.917 31.212a2.127 2.127 0 0 0 3.005 0l2.858-2.857a1.062 1.062 0 0 0-1.503-1.503L25.42 29.71l-.993-.993a1.062 1.062 0 1 0-1.503 1.503l.993.993ZM33.09 28.125a1.063 1.063 0 0 0 0 2.125h5.237a1.062 1.062 0 1 0 0-2.125H33.09ZM38.324 33.848h-14.21a1.062 1.062 0 1 0 0 2.125h14.21a1.063 1.063 0 0 0 0-2.125ZM38.324 39.57h-14.21a1.063 1.063 0 0 0 0 2.124h14.21a1.062 1.062 0 1 0 0-2.125Z" fill="#023333"/></svg>