<svg width="63" height="63" fill="none" xmlns="http://www.w3.org/2000/svg"><circle cx="31.5" cy="31.5" r="31.5" fill="#F6F6F6"/><path d="M38.34 29.32a1.21 1.21 0 0 0-1.211-1.21H24.656a1.21 1.21 0 1 0 0 2.421H37.13a1.21 1.21 0 0 0 1.21-1.21ZM24.656 32.953a1.21 1.21 0 0 0 0 2.422h7.575a1.21 1.21 0 1 0 0-2.422h-7.575Z" fill="#023333"/><path d="M27.502 44.578h-4.05a2.425 2.425 0 0 1-2.422-2.422V20.844a2.425 2.425 0 0 1 2.422-2.422H38.34a2.425 2.425 0 0 1 2.422 2.422v7.447a1.211 1.211 0 0 0 2.422 0v-7.447A4.85 4.85 0 0 0 38.34 16H23.452a4.85 4.85 0 0 0-4.844 4.844v21.312A4.85 4.85 0 0 0 23.452 47h4.05a1.21 1.21 0 1 0 0-2.422Z" fill="#023333"/><path d="M45.329 33.532a3.637 3.637 0 0 0-5.137 0l-6.648 6.633c-.141.14-.246.314-.304.505l-1.448 4.767a1.211 1.211 0 0 0 1.483 1.519l4.887-1.354a1.21 1.21 0 0 0 .532-.31l6.635-6.622a3.637 3.637 0 0 0 0-5.138Zm-8.12 9.82-2.46.682.72-2.37 4.486-4.475 1.713 1.713-4.46 4.45Zm6.408-6.395-.235.234-1.712-1.713.234-.233a1.212 1.212 0 0 1 1.713 1.712ZM37.129 23.266H24.656a1.211 1.211 0 1 0 0 2.422H37.13a1.21 1.21 0 1 0 0-2.422Z" fill="#023333"/></svg>