<svg width="36" height="36" fill="none" xmlns="http://www.w3.org/2000/svg"><path d="M10.175 14.087h-3.13a.783.783 0 0 0-.783.783v6.26a.783.783 0 0 0 1.565 0v-5.478h2.348a.783.783 0 0 0 0-1.565Z" fill="#023333"/><path d="M8.61 17.218H7.044a.783.783 0 0 0 0 1.565H8.61a.783.783 0 0 0 0-1.565Z" fill="#023333"/><path d="M18 0C8.075 0 0 8.075 0 18s8.075 18 18 18 18-8.075 18-18S27.925 0 18 0Zm0 34.435C8.937 34.435 1.565 27.063 1.565 18 1.565 8.937 8.937 1.565 18 1.565c9.063 0 16.435 7.372 16.435 16.435 0 9.063-7.372 16.435-16.435 16.435Z" fill="#023333"/><path d="M28.374 9.684a13.246 13.246 0 0 0-10.376-4.989c-4.051 0-7.833 1.82-10.376 4.989a.782.782 0 1 0 1.22.98 11.69 11.69 0 0 1 9.156-4.404c3.573 0 6.91 1.605 9.155 4.403a.782.782 0 1 0 1.22-.98ZM27.618 26.04a.783.783 0 0 0-1.105.03c-2.247 2.365-5.269 3.669-8.512 3.669-3.243 0-6.266-1.304-8.51-3.67a.78.78 0 0 0-1.105-.029.78.78 0 0 0-.03 1.107c2.544 2.68 5.968 4.157 9.645 4.157 3.677 0 7.101-1.476 9.646-4.157a.782.782 0 0 0-.03-1.107ZM15.175 18.762a2.35 2.35 0 0 0 2.044-2.327 2.35 2.35 0 0 0-2.348-2.348h-1.565a.783.783 0 0 0-.783.783v6.26a.783.783 0 0 0 1.566 0v-1.24l1.793 1.794a.786.786 0 0 0 1.107-.001.783.783 0 0 0 0-1.107l-1.814-1.814Zm-1.086-1.545v-1.565h.782a.784.784 0 0 1 0 1.565h-.782ZM22.694 20.348h-2.348v-4.696h2.348a.783.783 0 0 0 0-1.565h-3.13a.783.783 0 0 0-.783.783v6.26c0 .432.35.783.783.783h3.13a.783.783 0 0 0 0-1.565Z" fill="#023333"/><path d="M21.13 17.218h-1.566a.783.783 0 0 0 0 1.565h1.565a.783.783 0 0 0 0-1.565ZM28.956 20.348h-2.348v-4.696h2.348a.783.783 0 0 0 0-1.565h-3.13a.783.783 0 0 0-.783.783v6.26c0 .432.35.783.783.783h3.13a.783.783 0 0 0 0-1.565Z" fill="#023333"/><path d="M27.39 17.218h-1.564a.783.783 0 0 0 0 1.565h1.565a.783.783 0 0 0 0-1.565Z" fill="#023333"/></svg>