<svg width="32" height="32" fill="none" xmlns="http://www.w3.org/2000/svg"><g clip-path="url('#clip0_417_9833')"><path d="M24.625 8.625c0-.69-.56-1.25-1.25-1.25h-9.833a1.25 1.25 0 1 0 0 2.5h9.833c.69 0 1.25-.56 1.25-1.25Zm-1.25 6.166h-9.833a1.25 1.25 0 1 1 0-2.5h9.833a1.25 1.25 0 1 1 0 2.5ZM.001 8.666V30.75c0 1.117 1.352 1.666 2.134.884l4.55-4.55h16.649a3.756 3.756 0 0 0 3.708-3.191l2.824 2.825c.78.78 2.134.236 2.134-.884V3.75A3.754 3.754 0 0 0 28.25 0H8.667a3.754 3.754 0 0 0-3.75 3.75v1.167H3.751A3.754 3.754 0 0 0 0 8.667Zm29.5 14.149-2.784-2.783a1.255 1.255 0 0 0-.883-.366H8.666c-.689 0-1.25-.56-1.25-1.25V3.75c0-.69.561-1.25 1.25-1.25H28.25c.69 0 1.25.56 1.25 1.25v19.065ZM2.5 8.666c0-.689.56-1.25 1.25-1.25h1.166v11a3.754 3.754 0 0 0 3.75 3.75h15.917v1.167c0 .689-.561 1.25-1.25 1.25H6.167c-.331 0-.65.131-.884.366L2.501 27.73V8.666Z" fill="#023333"/></g><defs><clipPath id="clip0_417_9833"><path fill="#fff" transform="matrix(-1 0 0 1 32 0)" d="M0 0h32v32H0z"/></clipPath></defs></svg>