<svg width="28" height="32" fill="none" xmlns="http://www.w3.org/2000/svg"><path d="M23.188 16.215a1.187 1.187 0 1 0-1.67 1.689 10.614 10.614 0 0 1 3.17 7.596c0 1.453-4.164 3.563-10.688 3.563-6.524 0-10.687-2.111-10.687-3.565a10.615 10.615 0 0 1 3.128-7.556 1.186 1.186 0 1 0-1.679-1.679A12.976 12.976 0 0 0 .938 25.5c0 3.857 6.73 5.938 13.062 5.938 6.333 0 13.063-2.081 13.063-5.938a12.97 12.97 0 0 0-3.875-9.285Z" fill="#023333"/><path d="M14 17.188a8.312 8.312 0 1 0-8.313-8.313A8.322 8.322 0 0 0 14 17.188Zm0-14.25a5.938 5.938 0 1 1-5.938 5.937A5.945 5.945 0 0 1 14 2.937Z" fill="#023333"/></svg>