<svg width="36" height="36" fill="none" xmlns="http://www.w3.org/2000/svg"><g clip-path="url('#clip0_417_9812')" fill="#023333"><path d="M21.634 32.79c-.297.074-.6.14-.9.195a1.449 1.449 0 0 0-.57 2.607c.308.216.7.314 1.098.24.357-.067.718-.145 1.072-.233a1.447 1.447 0 1 0-.7-2.809ZM32.338 13.392a1.446 1.446 0 1 0 2.748-.91 17.977 17.977 0 0 0-.377-1.03 1.447 1.447 0 1 0-2.687 1.074c.114.284.22.575.316.866ZM26.34 30.723c-.255.169-.518.332-.784.485a1.447 1.447 0 0 0 1.447 2.507c.315-.182.629-.376.933-.577a1.447 1.447 0 0 0-1.596-2.415ZM35.987 17.433a1.447 1.447 0 0 0-2.892.114c.012.305.015.615.008.92a1.445 1.445 0 0 0 1.415 1.48 1.447 1.447 0 0 0 1.478-1.416c.008-.364.005-.733-.009-1.098ZM32.103 26.916a1.447 1.447 0 0 0-2.026.29 15.1 15.1 0 0 1-.576.719 1.448 1.448 0 0 0 2.204 1.876c.237-.278.467-.566.687-.859.48-.64.35-1.546-.289-2.026ZM34.23 21.685a1.447 1.447 0 0 0-1.813.948 15.3 15.3 0 0 1-.302.87 1.448 1.448 0 0 0 2.704 1.031c.13-.34.25-.689.36-1.035a1.448 1.448 0 0 0-.948-1.814ZM15.322 32.998a14.944 14.944 0 0 1-3.712-1.18l-.04-.022a15.72 15.72 0 0 1-.828-.419 15.44 15.44 0 0 1-1.44-.9C2.496 25.682.859 16.241 5.655 9.434A15.04 15.04 0 0 1 9.366 5.74l.052-.036c4.958-3.416 11.69-3.647 16.954-.136l-1.13 1.633c-.315.455-.122.787.429.737l4.911-.44c.551-.05.88-.526.732-1.058l-1.318-4.752c-.148-.533-.526-.596-.84-.142l-1.134 1.638A17.872 17.872 0 0 0 14.925.4c-.463.08-.92.178-1.37.292l-.01.002-.051.015A17.845 17.845 0 0 0 3.598 7.34c-.02.024-.042.049-.061.075a17.034 17.034 0 0 0-.626.903c-.015.023-.027.046-.04.07A17.842 17.842 0 0 0 .018 18.911v.037c.016.363.045.731.084 1.094.002.023.007.045.011.068.04.365.091.73.155 1.095a17.86 17.86 0 0 0 5.036 9.686l.018.019.007.006a18.228 18.228 0 0 0 2.306 1.926 17.842 17.842 0 0 0 7.176 3.004 1.447 1.447 0 1 0 .51-2.85Z"/><path d="M17.113 6.438c-.647 0-1.172.525-1.172 1.171v11.666l10.67 5.516a1.17 1.17 0 0 0 1.075-2.08l-9.403-4.862V7.61a1.17 1.17 0 0 0-1.17-1.17Z"/></g><defs><clipPath id="clip0_417_9812"><path fill="#fff" d="M0 0h36v36H0z"/></clipPath></defs></svg>