<svg width="10" height="10" fill="none" xmlns="http://www.w3.org/2000/svg"><path d="M8.828 2.363V.605H1.172C.526.605 0 1.131 0 1.777V7.93c0 .807.657 1.465 1.465 1.465H10V2.363H8.828ZM1.172 1.191h7.07v1.172h-7.07a.587.587 0 0 1 0-1.172Zm8.242 5.86H7.95a.88.88 0 0 1 0-1.758h1.465v1.758Zm0-2.344H7.95c-.808 0-1.465.657-1.465 1.465s.657 1.465 1.465 1.465h1.465v1.172h-7.95a.88.88 0 0 1-.878-.88V2.793c.172.1.372.157.586.157h8.242v1.758Z" fill="#033333"/><path d="M8.242 5.879h-.586v.586h.586v-.586Z" fill="#033333"/></svg>