<svg width="11" height="11" fill="none" xmlns="http://www.w3.org/2000/svg"><path d="M9.582.86h-.988V.343a.344.344 0 1 0-.688 0v.515H3.094V.344a.344.344 0 1 0-.688 0v.515h-.988A1.42 1.42 0 0 0 0 2.277v7.305A1.42 1.42 0 0 0 1.418 11h8.164A1.42 1.42 0 0 0 11 9.582V2.277A1.42 1.42 0 0 0 9.582.86Zm-8.164.687h.988v.344a.344.344 0 1 0 .688 0v-.344h4.812v.344a.344.344 0 1 0 .688 0v-.344h.988c.403 0 .73.328.73.73v.817H.688v-.817c0-.402.327-.73.73-.73Zm8.164 8.765H1.418a.731.731 0 0 1-.73-.73v-5.8h9.624v5.8c0 .403-.327.73-.73.73Z" fill="#033333"/></svg>