<svg xmlns="http://www.w3.org/2000/svg"><defs><symbol id="teleg"><path d="M16 0C7.162 0 0 7.162 0 16s7.162 16 16 16 16-7.163 16-16S24.837 0 16 0zm7.863 10.969-2.625 12.369c-.181.881-.712 1.087-1.45.681l-4-2.956-1.919 1.869c-.225.219-.4.4-.8.4-.519 0-.431-.194-.606-.688L11.1 18.169l-3.956-1.231c-.856-.262-.862-.85.194-1.269l15.412-5.95c.7-.319 1.381.169 1.113 1.25z"/></symbol><font id="icon-font" horiz-adv-x="1024"><font-face units-per-em="1024" ascent="960" descent="-64"/><glyph horiz-adv-x="512"/><glyph unicode="" glyph-name="arrow-down" d="M511.997 156.166c-18.353 0-36.703 7.007-50.694 20.992L21.006 617.46c-28.009 28.008-28.009 73.42 0 101.417 27.997 27.997 73.399 27.997 101.41 0l389.581-389.603 389.582 389.59c28.009 27.997 73.407 27.997 101.402 0 28.022-27.997 28.022-73.408 0-101.417L562.69 177.145c-13.998-13.987-32.348-20.978-50.693-20.978z"/><glyph unicode="" glyph-name="arrow-next" d="M968.825 417.826 670.157 119.162a42.66 42.66 0 0 0-30.013-11.976 42.683 42.683 0 0 0-29.798 12.493 42.687 42.687 0 0 0-12.493 29.798 42.66 42.66 0 0 0 11.976 30.013l225.834 225.836H85.326a42.666 42.666 0 1 0 0 85.334h750.337L609.829 716.495a42.696 42.696 0 0 0-9.565 13.849 42.74 42.74 0 0 0-3.463 16.47 42.696 42.696 0 0 0 12.497 30.541 42.681 42.681 0 0 0 30.539 12.496 42.643 42.643 0 0 0 30.319-13.024l298.668-298.666c7.997-8.001 12.493-18.852 12.493-30.166s-4.496-22.164-12.493-30.165z"/><glyph unicode="" glyph-name="arrow-prev" d="m55.153 417.826 298.666-298.664c8.047-7.773 18.825-12.074 30.012-11.976s21.888 4.585 29.799 12.493a42.671 42.671 0 0 1 .52 59.811L188.315 405.326h750.334a42.67 42.67 0 0 1 30.171 72.837 42.664 42.664 0 0 1-30.171 12.497H188.315L414.15 716.495a42.672 42.672 0 0 1 13.024 30.319 42.674 42.674 0 0 1-12.495 30.541 42.657 42.657 0 0 1-47.01 9.034 42.666 42.666 0 0 1-13.85-9.562L55.153 478.161a42.666 42.666 0 0 1 0-60.331z"/><glyph unicode="" glyph-name="calendar" d="M892 880h-92v48c0 17.672-14.326 32-32 32s-32-14.328-32-32v-48H288v48c0 17.672-14.326 32-32 32s-32-14.328-32-32v-48h-92C59.214 880 0 820.786 0 748V68C0-4.785 59.214-64 132-64h760c72.785 0 132 59.215 132 132v680c0 72.786-59.215 132-132 132zm-760-64h92v-31.999C224 766.329 238.326 752 256 752s32 14.329 32 32.001V816h448v-31.999C736 766.329 750.326 752 768 752s32 14.329 32 32.001V816h92c37.496 0 68-30.503 68-67.999v-76H64v76C64 785.497 94.504 816 132 816zM892 0H132C94.504 0 64 30.504 64 68v540h896V68c0-37.496-30.504-68-68-68z"/><glyph unicode="" glyph-name="calendar-clock" d="M772 500c22.091 0 40 17.909 40 40s-17.909 40-40 40-40-17.909-40-40 17.909-40 40-40zm92 380h-52v40c0 22.092-17.909 40-40 40s-40-17.908-40-40v-40H550v40c0 22.092-17.908 40-39.999 40s-40-17.908-40-40v-40H290v40c0 22.092-17.908 40-39.999 40s-40-17.908-40-40v-40h-50c-88.224 0-160-71.776-160-160V96c0-88.227 71.776-160 160-160h306c22.092 0 40 17.911 40 40.001s-17.908 40.001-40 40.001h-306c-44.112 0-80 35.886-80 79.998v624c0 44.111 35.888 80 80 80h50v-40c0-22.091 17.908-39.999 40-39.999S290 737.909 290 760v40h180.001v-40c0-22.091 17.908-39.999 40-39.999S550 737.909 550 760v40h182v-40c0-22.091 17.908-39.999 40-39.999s40 17.908 40 39.999v40h52c44.112 0 79.998-35.888 79.998-80V492c0-22.092 17.911-40 40.001-40S1024 469.908 1024 492v228c0 88.223-71.773 160-160 160zm-82-460c-133.44 0-242-108.56-242-242S648.56-64 782-64s242 108.56 242 242-108.56 242-242 242zm0-403.998c-89.326 0-162 72.67-162 161.998s72.673 162 162 162c89.326 0 161.998-72.671 161.998-162S871.327 16.002 782 16.002zM839.818 218h-18v42c0 22.092-17.908 40-39.999 40s-40-17.908-40-40v-82c0-22.092 17.908-40 40-40h57.999c22.092 0 40 17.908 40 40s-17.908 40-40 40zM597.819 500c22.09 0 39.999 17.909 39.999 40s-17.909 40-39.999 40c-22.091 0-40-17.909-40-40s17.909-40 40-40zM424 326c22.091 0 40 17.909 40 40s-17.909 40-40 40-40-17.909-40-40 17.909-40 40-40zM250.182 500c22.091 0 40 17.909 40 40s-17.909 40-40 40-40-17.909-40-40 17.909-40 40-40zm0-174c22.091 0 40 17.909 40 40s-17.909 40-40 40-40-17.909-40-40 17.909-40 40-40zm0-174c22.091 0 40 17.909 40 40s-17.909 40-40 40-40-17.909-40-40 17.909-40 40-40zM424 152c22.091 0 40 17.909 40 40s-17.909 40-40 40-40-17.909-40-40 17.909-40 40-40zm0 348c22.091 0 40 17.909 40 40s-17.909 40-40 40-40-17.909-40-40 17.909-40 40-40z"/><glyph unicode="" glyph-name="check" d="M936.015 760.663c20.677-18.088 22.552-49.6 4.159-70.008L422.569 116.142c-18.483-20.514-50.219-21.818-70.323-2.894L52.725 395.222c-18.679 17.585-20.467 46.887-4.441 66.919 17.684 22.104 50.615 25.147 71.66 6.218L352.332 259.33c20.196-18.167 51.288-16.542 69.484 3.628l445.221 493.633c18.015 19.976 48.735 21.787 68.978 4.072z"/><glyph unicode="" glyph-name="close" d="M52.941-64c-13.489 0-26.977 5.127-37.225 15.455-20.574 20.575-20.574 53.928 0 74.503l918.611 918.611c20.575 20.574 53.928 20.574 74.503 0s20.575-53.929 0-74.515L90.231-48.546c-10.326-10.262-23.814-15.455-37.29-15.455zm918.681 0c-13.495 0-26.968 5.127-37.23 15.455l-918.677 918.6c-20.574 20.586-20.574 53.941 0 74.515s53.929 20.574 74.515 0l918.599-918.611c20.575-20.575 20.575-53.928 0-74.503-10.32-10.262-23.801-15.455-37.208-15.455z"/><glyph unicode="" glyph-name="down-select" d="M883.336 774 512 402.664 140.664 774 0 633.336l512-512 512 512z"/><glyph unicode="" glyph-name="fb" d="M682.56 789.974h93.483V952.79c-16.128 2.219-71.595 7.211-136.192 7.211-295.766 0-215.296-334.934-227.072-384H264V393.985h148.736V-63.999h182.358v457.942h142.72l22.656 182.016H595.052c8.021 120.49-32.47 214.016 87.509 214.016z"/><glyph unicode="" glyph-name="i" d="M512 960C229.683 960 0 730.317 0 448S229.683-64 512-64s512 229.683 512 512-229.683 512-512 512zm51.2-768H460.8v307.2h102.4V192zm0 409.6H460.8V704h102.4V601.6z"/><glyph unicode="" glyph-name="inst" d="M1020.921 659.094c-2.494 54.499-11.147 91.718-23.801 124.281a250.928 250.928 0 0 1-59.056 90.688 251.022 251.022 0 0 1-90.69 59.071c-32.571 12.648-69.778 21.297-124.281 23.773-54.602 2.5-72.047 3.094-211.094 3.094s-156.492-.594-211.094-3.078c-54.499-2.492-91.711-11.148-124.281-23.805a250.934 250.934 0 0 1-90.687-59.055 250.975 250.975 0 0 1-59.071-90.68C14.218 750.812 5.569 713.594 3.093 659.102c-2.5-54.609-3.094-72.046-3.094-211.093 0-139.055.594-156.5 3.094-211.102 2.484-54.495 11.141-91.71 23.797-124.281a250.921 250.921 0 0 1 59.054-90.683 250.886 250.886 0 0 1 90.688-59.056c32.562-12.661 69.781-21.307 124.281-23.801 54.609-2.494 72.047-3.079 211.094-3.079s156.492.585 211.093 3.079c54.502 2.494 91.71 11.14 124.281 23.801a261.762 261.762 0 0 1 149.738 149.738c12.661 32.571 21.307 69.786 23.801 124.281 2.487 54.609 3.079 72.047 3.079 211.094 0 139.055-.592 156.492-3.079 211.094zm-92.16-417.992c-2.275-49.921-10.62-77.035-17.627-95.072a169.55 169.55 0 0 0-97.17-97.17c-18.044-7.007-45.151-15.353-95.073-17.627-53.977-2.465-70.172-2.984-206.89-2.984-136.727 0-152.914.519-206.898 2.984-49.914 2.275-77.023 10.62-95.07 17.627a158.738 158.738 0 0 0-58.867 38.305 158.605 158.605 0 0 0-38.305 58.865c-7.008 18.037-15.352 45.151-17.625 95.072-2.461 53.985-2.984 70.18-2.984 206.89 0 136.719.524 152.907 2.984 206.898 2.281 49.922 10.617 77.031 17.625 95.07a158.729 158.729 0 0 0 38.305 58.875 158.524 158.524 0 0 0 58.875 38.297c18.039 7.016 45.148 15.352 95.07 17.633 53.984 2.461 70.18 2.984 206.89 2.984h-.008c136.711 0 152.907-.524 206.898-2.992 49.921-2.273 77.021-10.617 95.073-17.625a158.72 158.72 0 0 0 58.865-38.297 158.6 158.6 0 0 0 38.298-58.875c7.014-18.039 15.36-45.148 17.635-95.07 2.458-53.985 2.984-70.18 2.984-206.89 0-136.719-.519-152.907-2.984-206.898zM511.985 710.929c-145.203 0-262.914-117.719-262.914-262.922s117.711-262.911 262.914-262.911c145.211 0 262.919 117.708 262.919 262.911S657.196 710.929 511.985 710.929zm0-433.587c-94.25.008-170.664 76.415-170.656 170.672 0 94.25 76.406 170.664 170.664 170.664 94.258-.008 170.664-76.415 170.664-170.664 0-94.258-76.415-170.672-170.672-170.672zm334.753 443.999c0-33.93-27.509-61.438-61.433-61.438-33.938 0-61.449 27.508-61.449 61.438 0 33.938 27.51 61.445 61.449 61.445 33.924 0 61.433-27.508 61.433-61.445z"/><glyph unicode="" glyph-name="i-outline" d="M511.976 953.423A505.442 505.442 0 0 1 45.012 641.409 505.434 505.434 0 0 1 413.369-47.738a505.472 505.472 0 0 1 292.029 28.763 505.443 505.443 0 0 1 312.013 466.963A506.044 506.044 0 0 1 869.199 805.21a506.042 506.042 0 0 1-357.222 148.213zm0-918.973a413.555 413.555 0 0 0-229.751 69.691 413.537 413.537 0 0 0 388.002 725.906 413.54 413.54 0 0 0 255.287-382.059c-.134-109.639-43.748-214.745-121.273-292.269S621.611 34.584 511.976 34.45zm.052 551.396a45.946 45.946 0 0 1-45.95-45.95V218.258a45.95 45.95 0 1 1 91.896 0v321.638a45.947 45.947 0 0 1-45.946 45.95zm0 45.949c25.376 0 45.946 20.572 45.946 45.948s-20.571 45.949-45.946 45.949c-25.379 0-45.95-20.572-45.95-45.949s20.571-45.948 45.95-45.948z"/><glyph unicode="" glyph-name="map" d="M512 960a384.51 384.51 0 0 0 384-384c0-275.68-357.76-620.962-372.96-635.52C520.084-62.396 516.124-64 512-64s-8.084 1.604-11.04 4.48C485.76-44.962 128 300.32 128 576a384.51 384.51 0 0 0 384 384zm0-560a175.998 175.998 0 0 1 172.619 210.335 176.002 176.002 0 0 1-138.282 138.282 175.995 175.995 0 0 1-210.335-172.619 176.108 176.108 0 0 1 176-176z"/><glyph unicode="" glyph-name="arrow-right" horiz-adv-x="709" d="M138.399 886.37c-12.958.285-25.683-3.471-36.406-10.753a62.38 62.38 0 0 1-25.189-67.799 62.341 62.341 0 0 1 20.551-31.913l381.583-326.897L97.355 122.226c-6.918-5.081-12.712-11.54-17.018-18.968s-7.033-15.667-8.009-24.198-.18-17.164 2.338-25.372 6.703-15.809 12.294-22.323c5.591-6.522 12.467-11.808 20.197-15.541s16.148-5.829 24.728-6.16a62.378 62.378 0 0 1 25.129 4.23 62.485 62.485 0 0 1 21.335 13.942L615.228 401.63c6.861 5.855 12.37 13.121 16.147 21.312a62.388 62.388 0 0 1 0 52.247 62.358 62.358 0 0 1-16.147 21.319L178.349 870.66a62.363 62.363 0 0 1-39.949 15.723v-.014z"/><glyph unicode="" glyph-name="play" horiz-adv-x="796" d="M726.09 543.088 157.296 932.481c-26.268 17.995-52.734 27.52-74.734 27.52-42.531 0-68.84-34.134-68.84-91.27V27.137c0-57.065 26.276-91.136 68.707-91.136 22.032 0 48.076 9.535 74.402 27.58L725.89 352.963c36.597 25.082 56.86 58.836 56.86 95.084.011 36.223-20.025 69.968-56.661 95.042z"/><glyph unicode="" glyph-name="time" d="M512-64c282.697 0 512 229.303 512 512S794.697 960 512 960 0 730.697 0 448 229.303-64 512-64zm-36.572 804.571c0 20.115 16.457 36.572 36.572 36.572s36.572-16.457 36.572-36.572V465.554l169.143-135.315c15.726-12.617 18.284-35.656 5.667-51.382-7.132-8.96-17.737-13.714-28.526-13.714-8.046 0-16.092 2.562-22.856 8.046L489.143 419.473c-8.595 6.95-13.714 17.37-13.714 28.526V740.57h-.003z"/><glyph unicode="" glyph-name="viber" d="M605.64 916.143H418.394c-180.692 0-327.68-146.988-327.68-327.68V448.029c0-126.976 73.143-242.014 187.245-296.199V-4.637c0-13.575 16.969-20.597 26.565-11.001l135.987 135.87h165.127c180.692 0 327.678 146.987 327.678 327.796v140.434c0 180.692-146.986 327.68-327.678 327.68zm122.646-614.178-47.397-46.343c-49.854-48.803-179.99 6.905-294.678 124.05-114.688 117.263-165.01 248.569-117.614 297.37l47.397 46.343c17.437 17.086 47.045 16.735 66.589-.702l68.345-69.866c24.342-24.927 14.043-66.706-18.139-76.303-22.235-7.139-37.332-31.598-30.193-53.833 11.82-51.961 77.707-116.912 126.859-129.785 22.118-5.149 46.928 6.905 54.652 29.023 10.181 31.949 52.195 41.428 76.654 16.384l68.228-69.749c17.086-17.426 16.852-47.045-.702-66.589zM554.615 693.789c-4.681 0-9.362-.234-13.926-.819-8.543-.936-16.267 5.266-17.203 13.809s5.266 16.267 13.809 17.203c5.734.702 11.586.936 17.32.936 86.016 0 155.999-69.983 155.999-155.999 0-5.734-.234-11.586-.936-17.32-.936-8.426-8.777-14.746-17.203-13.809s-14.746 8.777-13.809 17.203c.468 4.564.819 9.245.819 13.926 0 68.813-56.057 124.869-124.869 124.869zm93.623-124.87c0-8.543-7.139-15.565-15.682-15.565-8.426 0-15.565 7.022-15.565 15.565 0 34.406-27.97 62.376-62.376 62.376-8.66 0-15.682 7.022-15.682 15.682 0 8.543 7.022 15.565 15.682 15.565 51.61 0 93.623-42.013 93.623-93.623zm119.018-50.439c-1.989-8.426-11.001-13.692-19.31-11.469-8.075 2.224-12.99 10.65-11.118 18.725 3.394 14.043 5.032 28.555 5.032 43.184 0 103.219-84.027 187.246-187.246 187.246-4.798 0-9.713-.117-14.512-.585-8.543-.585-16.033 5.851-16.735 14.395-.585 8.66 5.851 16.15 14.395 16.735 5.617.468 11.235.702 16.852.702 120.422 0 218.492-98.07 218.492-218.492 0-16.969-1.989-33.938-5.851-50.439z"/><glyph unicode="" glyph-name="viber-outline" horiz-adv-x="964" d="M899.012 379.048c27.726 233.38-13.324 380.718-87.359 447.36l.042.039c-119.501 113.805-523.065 130.649-666.028-5.112-64.202-66.409-86.816-163.873-89.294-284.532-2.478-120.698-5.421-346.797 205.267-408.134h.194l-.194-93.672s-1.432-37.942 22.807-45.574c27.725-8.981 40.272 8.638 126.506 111.64 144.202-12.511 254.947 16.143 267.53 20.329 29.124 9.752 193.885 31.557 220.527 257.656zM425.165 166.966S333.896 53.157 305.513 23.618c-9.293-9.608-19.477-8.716-19.322 10.336 0 12.505.697 155.509.697 155.509-178.626 51.188-168.094 243.718-166.158 344.434 1.937 100.756 20.368 183.273 74.735 238.84 125.422 117.6 479.225 91.308 569.374 6.583 110.206-97.697 70.975-373.709 71.21-383.119-22.654-188.733-156.166-200.696-180.718-208.87-10.493-3.482-107.88-28.539-230.165-20.366zm50.487 583.681c-14.908 0-14.908-23.233 0-23.427 115.664-.891 210.922-81.511 211.964-229.392 0-15.605 22.847-15.411 22.654.194h-.036c-1.241 159.342-105.249 251.734-234.583 252.624zM627.766 522.35c-.343-15.412 22.462-16.147 22.654-.542 1.897 87.861-52.275 160.233-154.076 167.861-14.908 1.084-16.457-22.343-1.588-23.427 88.287-6.699 134.793-66.951 133.01-143.892zm-24.323-99.995c-19.128 11.074-38.605 4.182-46.659-6.699l-16.844-21.801c-8.558-11.075-24.55-9.603-24.55-9.603-116.709 30.862-147.919 152.992-147.919 152.992s-1.433 16.535 9.255 25.402l21.065 17.425c10.533 8.364 17.193 28.499 6.467 48.286-28.655 51.772-47.9 69.623-57.696 83.331-10.3 12.895-25.789 15.799-41.897 7.086h-.349c-33.495-19.593-70.165-56.263-58.432-94.018 20.019-39.807 56.805-166.7 174.057-262.576 55.102-45.343 142.305-91.808 179.323-102.536l.349-.542c36.474-12.162 71.947 25.943 90.879 60.446v.271c8.403 16.685 5.62 32.485-6.656 42.825-21.763 21.22-54.597 44.647-80.39 59.71zm-91.154 180.84c37.212-2.168 55.257-21.607 57.193-61.53.697-15.606 23.35-14.522 22.653 1.084-2.478 52.121-29.662 81.163-78.607 83.873-14.908.89-16.302-22.536-1.239-23.427z"/><glyph unicode="" glyph-name="mail" horiz-adv-x="1210" d="M1199.569 812.636 832.545 447.977l367.024-364.659c6.637 13.868 10.659 29.198 10.659 45.569v638.182c0 16.373-4.022 31.701-10.659 45.568zm-95.641 60.818h-997.45c-16.373 0-31.701-4.025-45.568-10.66l469.095-466.732c41.477-41.477 108.926-41.477 150.402 0l469.099 466.732c-13.871 6.635-29.203 10.66-45.577 10.66zM10.66 812.636C4.025 798.769 0 783.441 0 767.068V128.886c0-16.373 4.025-31.703 10.66-45.569l367.023 364.659L10.66 812.635zm771.817-414.818-51.936-51.936c-69.11-69.111-181.565-69.111-250.675 0l-51.934 51.936L60.909 33.159C74.776 26.522 90.105 22.5 106.477 22.5h997.45c16.375 0 31.707 4.022 45.577 10.659L782.476 397.818z"/><glyph unicode="" glyph-name="phone" d="M805.978 360.478c-34.635 34.194-77.874 34.194-112.288 0-26.252-26.031-52.504-52.063-78.315-78.536-7.06-7.28-13.016-8.823-21.62-3.971-16.986 9.265-35.076 16.766-51.401 26.914-76.109 47.871-139.864 109.42-196.339 178.69-28.017 34.414-52.945 71.256-70.373 112.73-3.53 8.382-2.868 13.898 3.971 20.737 26.252 25.37 51.843 51.401 77.653 77.432 35.959 36.179 35.959 78.536-.221 114.935-20.516 20.737-41.033 41.033-61.548 61.769-21.178 21.178-42.136 42.576-63.535 63.534-34.635 33.753-77.873 33.753-112.288-.221-26.473-26.031-51.843-52.725-78.756-78.315C15.99 832.571 3.415 803.672.768 769.919c-4.192-54.931 9.265-106.772 28.237-157.292 38.827-104.567 97.949-197.442 169.646-282.595 96.846-115.156 212.442-206.266 347.674-272.008C607.212 28.465 670.306 5.74 738.914 1.994c47.21-2.645 88.242 9.267 121.109 46.106 22.502 25.148 47.872 48.094 71.697 72.137 35.302 35.738 35.524 78.977.444 114.273-41.916 42.136-84.051 84.051-126.186 125.966z"/><glyph unicode="" glyph-name="burger" horiz-adv-x="1297" d="M1235.203 821.333H61.866c-29.453 0-53.333 23.88-53.333 53.333s23.88 53.333 53.333 53.333h1173.337c29.45 0 53.33-23.88 53.33-53.333s-23.88-53.333-53.33-53.333zM1288.533 448c0 29.454-23.88 53.333-53.33 53.333H61.866c-29.453 0-53.333-23.88-53.333-53.333s23.88-53.333 53.333-53.333h1173.337c29.45 0 53.33 23.88 53.33 53.333zm0-426.667c0 29.45-23.88 53.33-53.33 53.33H61.866c-29.453 0-53.333-23.88-53.333-53.33s23.88-53.33 53.333-53.33h1173.337c29.45 0 53.33 23.88 53.33 53.33z"/><glyph unicode="" glyph-name="step-1" d="M874.04 298.04c-55.765 55.765-122.143 97.045-194.563 122.034 77.566 53.423 128.522 142.828 128.522 243.925 0 163.214-132.786 296-295.999 296s-296-132.786-296-296c0-101.097 50.958-190.502 128.523-243.925-72.419-24.989-138.795-66.269-194.561-122.034C53.258 201.335 0 72.76 0-64h80c0 238.206 193.794 431.999 432 431.999S943.999 174.205 943.999-64H1024c0 136.76-53.258 265.335-149.96 362.04zM512 448c-119.101 0-216 96.897-216 216s96.899 216 216 216 216.001-96.896 216.001-216S631.101 448 512 448z"/><glyph unicode="" glyph-name="step-2" horiz-adv-x="1222" d="m1211.706 220.292-94.667 94.67V639.68l61.803 22.282a35.805 35.805 0 0 1 23.661 33.657 35.8 35.8 0 0 1-23.611 33.688L613.443 934.086a35.807 35.807 0 0 1-24.381 0L23.615 729.307A35.807 35.807 0 0 1 .002 695.774a35.81 35.81 0 0 1 23.365-33.705l208.681-77.303V348.81a35.795 35.795 0 0 1 6.433-20.477c2.303-3.303 24.122-33.102 79.984-61.219 70.574-35.526 163.134-53.539 275.113-53.539 111.897 0 204.926 17.976 276.506 53.433 56.412 27.942 78.957 57.427 81.345 60.697a35.813 35.813 0 0 1 6.877 21.098v233.65l87.132 31.414V314.961l-94.67-94.67a35.805 35.805 0 0 1-10.488-25.313 35.79 35.79 0 0 1 10.488-25.316l94.67-94.667V-4.431c0-19.773 16.027-35.804 35.8-35.804s35.804 16.031 35.804 35.804v79.426l94.667 94.667c13.983 13.976 13.983 36.649-.003 50.629zM601.253 862.344l460.093-166.625-467.601-168.581-453.848 168.125 461.356 167.081zm285.442-499.267c-122.394-110.133-486.103-97.505-583.042-.357v195.518L581.14 455.445c4.403-.697 8.559-4.496 24.579-.109l280.979 101.297V363.077h-.003zm194.543-222.621-54.523 54.523 54.523 54.523 54.52-54.523-54.52-54.523z"/><glyph unicode="" glyph-name="step-3" horiz-adv-x="1092" d="M31.8 799.992c.067 0 .133.008.2.008h290.133v32c0 52.933 43.066 96 96 96h256c52.934 0 96-43.067 96-96v-32h290.133c17.818 0 32-14.6 32-32V64c0-52.934-43.066-96-96-96H95.999c-52.933 0-96 43.066-96 96v703.45c1.225 21.017 14.15 32.425 31.8 32.542zM706.133 832c0 17.642-14.36 32-32 32h-256c-17.64 0-32-14.358-32-32v-32h320v32zM76.4 736l99.375-298.117A31.947 31.947 0 0 1 206.125 416h180.008v32c0 17.674 14.326 32 32 32h256c17.674 0 32-14.326 32-32v-32h180.009a31.944 31.944 0 0 1 30.348 21.883L1015.866 736H76.4zm373.733-320v-64h192v64h-192zM64 64c0-17.64 14.358-32 32-32h900.267c17.64 0 32 14.36 32 32v506.808L977.21 417.641a95.866 95.866 0 0 0-91.068-65.642H706.133v-32c0-17.674-14.326-32-32-32h-256c-17.674 0-32 14.326-32 32v32H206.125a95.863 95.863 0 0 0-91.067 65.642L64 570.808V64z"/><glyph unicode="" glyph-name="step-4" d="M512 960C228.994 960 0 730.986 0 448 0 164.995 229.014-64 512-64c283.005 0 512 229.014 512 512 0 283.006-229.014 512-512 512zm0-944C273.214 16 80 209.229 80 448c0 238.786 193.23 432 432 432 238.787 0 432-193.23 432-432 0-238.787-193.232-432-432-432zm0 515.344c-22.093 0-40-17.907-40-40V233.757c0-22.093 17.907-40 40-40s40 17.91 40 40.003v257.584c0 22.093-17.907 40-40 40zm0 48.97c29.824 0 54 24.176 54 54 0 29.822-24.176 53.999-54 53.999s-54-24.177-54-53.999c0-29.824 24.176-54 54-54z"/></font>
</defs>
</svg>
