<svg width="11" height="11" fill="none" xmlns="http://www.w3.org/2000/svg"><path d="M8.293 4.941a.43.43 0 1 0 0-.859.43.43 0 0 0 0 .86Z" fill="#033333"/><path d="M9.281.86h-.558V.43a.43.43 0 1 0-.86 0v.43H5.908V.43a.43.43 0 1 0-.86 0v.43H3.116V.43a.43.43 0 1 0-.86 0v.43H1.72A1.72 1.72 0 0 0 0 2.577v6.703A1.72 1.72 0 0 0 1.719 11h3.287a.43.43 0 0 0 0-.86H1.719a.86.86 0 0 1-.86-.859V2.578a.86.86 0 0 1 .86-.86h.537v.43a.43.43 0 1 0 .86 0v-.43h1.933v.43a.43.43 0 1 0 .86 0v-.43h1.954v.43a.43.43 0 1 0 .86 0v-.43h.558a.86.86 0 0 1 .86.86v2.45a.43.43 0 0 0 .859 0v-2.45A1.72 1.72 0 0 0 9.281.86Z" fill="#033333"/><path d="M8.4 5.8a2.603 2.603 0 0 0-2.6 2.6c0 1.434 1.167 2.6 2.6 2.6C9.834 11 11 9.834 11 8.4c0-1.433-1.166-2.6-2.6-2.6Zm0 4.34c-.96 0-1.74-.78-1.74-1.74s.78-1.74 1.74-1.74 1.74.78 1.74 1.74-.78 1.74-1.74 1.74Z" fill="#033333"/><path d="M9.023 7.97H8.83v-.45a.43.43 0 1 0-.86 0v.88c0 .238.193.43.43.43h.623a.43.43 0 1 0 0-.86ZM6.424 4.941a.43.43 0 1 0 0-.859.43.43 0 0 0 0 .86ZM4.555 6.81a.43.43 0 1 0 0-.859.43.43 0 0 0 0 .86ZM2.686 4.941a.43.43 0 1 0 0-.859.43.43 0 0 0 0 .86ZM2.686 6.81a.43.43 0 1 0 0-.859.43.43 0 0 0 0 .86ZM2.686 8.68a.43.43 0 1 0 0-.86.43.43 0 0 0 0 .86ZM4.555 8.68a.43.43 0 1 0 0-.86.43.43 0 0 0 0 .86ZM4.555 4.941a.43.43 0 1 0 0-.859.43.43 0 0 0 0 .86Z" fill="#033333"/></svg>