<svg xmlns="http://www.w3.org/2000/svg" viewBox="0 0 305.23 217.5"><defs><style>.cls-1{fill:#fff}</style></defs><g id="Слой_2" data-name="Слой 2"><g id="DM_White" data-name="DM White"><path class="cls-1" d="M18.66 183a16.35 16.35 0 0 1-8 2H0v-31.3h10.61a16.33 16.33 0 0 1 8 2 14.2 14.2 0 0 1 5.65 5.59 16.11 16.11 0 0 1 2 8.05 16.3 16.3 0 0 1-2 8 14.07 14.07 0 0 1-5.6 5.66Zm-2.73-22.9a11.11 11.11 0 0 0-5.45-1.35l-5-.05v21.15h5A10.21 10.21 0 0 0 21 169.31a11.24 11.24 0 0 0-1.35-5.46 9.46 9.46 0 0 0-3.72-3.75ZM60.1 163.68 50.63 185h-2.05l-9.49-21.3-3.6 21.3H30l5.3-31.3h4.85l9.38 21 9.45-21h4.91l5.25 31.3h-5.46ZM92.12 163.42V185H87v-31.3h4.49l15.28 21.26v-21.3h5.17V185h-4.28ZM138.21 177.19h-13.16l-2.88 7.81h-5.67l12.74-31.3h4.54L146.9 185h-5.77Zm-11.13-5h9.1l-4.6-11.19ZM159.4 185h-5.24v-26.25h-8.86v-5.09h23v5.09h-8.9ZM173.13 153.66h4.6V185h-4.6ZM208.57 183.36a17.77 17.77 0 0 1-16.78 0 15.43 15.43 0 0 1-5.87-5.83 16.35 16.35 0 0 1-2.12-8.25 16.59 16.59 0 0 1 2.09-8.25 15.3 15.3 0 0 1 5.9-5.83 17.85 17.85 0 0 1 16.76 0 15.14 15.14 0 0 1 5.91 5.81 17.26 17.26 0 0 1 0 16.54 15.16 15.16 0 0 1-5.89 5.81Zm-2.75-23.56a11.84 11.84 0 0 0-11.28 0 10.17 10.17 0 0 0-3.91 3.9 10.89 10.89 0 0 0-1.42 5.59 11.12 11.12 0 0 0 1.42 5.57 10.29 10.29 0 0 0 3.91 3.92 11.87 11.87 0 0 0 11.28 0 10.25 10.25 0 0 0 3.91-3.93 10.86 10.86 0 0 0 1.41-5.59 11.24 11.24 0 0 0-1.41-5.59 9.9 9.9 0 0 0-3.91-3.87ZM228.15 163.42V185H223v-31.3h4.5l15.28 21.26v-21.3h5.17V185h-4.28ZM274.24 177.19h-13.16L258.2 185h-5.68l12.75-31.3h4.54l13.11 31.3h-5.76Zm-11.13-5h9.1L267.6 161ZM287.57 153.66h5.13v26.23h12.53V185h-17.66Z"/><path d="M165.21 31.81v-.47a35.24 35.24 0 0 0-3.19-16.82A38 38 0 0 0 150.89 1l-1.25-1-1.25 1a38 38 0 0 0-11.16 13.54 35.24 35.24 0 0 0-3.23 16.8v.47l.21.39a60.72 60.72 0 0 1 3.66 8.25l.27.75-.79.13a104 104 0 0 0-26.49 8.06c-11.67 5.33-22.74 13-31.12 22.71L77.28 75l14.88 1.48a27.35 27.35 0 0 0 9.11-.56 27 27 0 0 0 7.34-3c-.48-1.29-1-2.58-1.38-3.88a23.14 23.14 0 0 1-6.89 3 23.67 23.67 0 0 1-7.78.47l-7.06-.71 1-1A88.27 88.27 0 0 1 110 54.29l.78-.38.17.85A94.92 94.92 0 0 0 123 86.37a93.59 93.59 0 0 0 5.3 7.74l.46.61-.66.37a44.36 44.36 0 0 0-12.29 10.32 43.81 43.81 0 0 0-8.76 17.5l-.86 3.47 14.24-4.48a27.36 27.36 0 0 0 6-2.68 26.93 26.93 0 0 0 5.14-4.07c.27-.26.54-.53.82-.78l.08-.08q-1.52-1.33-3-2.73c-.26.24-.52.48-.76.74a22.25 22.25 0 0 1-9.5 5.75l-7.21 2.29.48-1.29a40 40 0 0 1 18.43-20.88l.48-.26.34.41a102.45 102.45 0 0 0 16.83 15.54l1.2.89 1.2-.89a102 102 0 0 0 16.85-15.58l.35-.41.47.25a40 40 0 0 1 18.51 20.93l.49 1.29-7.27-2.29a22.25 22.25 0 0 1-9.5-5.75q-.42-.42-.84-.81c-1 .93-2 1.84-3 2.74l.17.14c.27.25.55.52.81.78a27.24 27.24 0 0 0 5.14 4.07 27.57 27.57 0 0 0 6 2.68l14.24 4.48-.85-3.47a43.83 43.83 0 0 0-8.77-17.5 44.45 44.45 0 0 0-12.36-10.36l-.67-.38.47-.6q2.82-3.72 5.26-7.7A94.79 94.79 0 0 0 188.5 54.8l.16-.86.78.39a87.88 87.88 0 0 1 23.41 16.46l1 1-7.29.72a23.45 23.45 0 0 1-7.79-.48 23.18 23.18 0 0 1-6.63-2.8c-.44 1.3-.89 2.6-1.39 3.88a26.51 26.51 0 0 0 16.18 3.4L222.07 75l-2.52-2.94c-8.38-9.76-19.45-17.38-31.12-22.7a103.86 103.86 0 0 0-26.57-8.08l-.79-.12.27-.76a63 63 0 0 1 3.66-8.2Zm-23.11 8.37a63 63 0 0 0-4-9.34l-.07-.13v-.16a31.11 31.11 0 0 1 2.84-14.32 32.85 32.85 0 0 1 8.33-10.69l.44-.38.43.38a32.88 32.88 0 0 1 8.33 10.69 31 31 0 0 1 2.83 14.32v.16l-.07.13a64.53 64.53 0 0 0-4 9.33l-.17.5-.53-.05q-3.37-.33-6.74-.39h-.08c-2.28 0-4.57.17-6.84.4h-.53ZM118.94 68.7a96 96 0 0 1-4.3-16l-.09-.52.45-.18q2.86-1.21 5.79-2.26l.54-.19.27.5a32.23 32.23 0 0 0 10.82 11.73 32.77 32.77 0 0 0 5.28 2.77l.61.25-.24.62a28.5 28.5 0 0 1-2.46 4.75 27.86 27.86 0 0 1-3.54 4.43l-.4.41-.47-.34a31.9 31.9 0 0 0-11.82-5.53l-.35-.08Zm3.52 5.6a28.08 28.08 0 0 1 17.62 25.48v1.67l-1.17-1.2a89 89 0 0 1-12.51-16 87.85 87.85 0 0 1-4.83-9.09l-.69-1.51ZM155 105.45q-2.37 2.05-4.84 4l-.41.31-.41-.31q-2.69-2.05-5.22-4.29l-.27-.23.05-.36c0-.44.1-.89.14-1.33.08-.94.12-1.88.12-2.83a31.75 31.75 0 0 0-.66-6.51l-.13-.65.65-.13c.54-.12 1.09-.22 1.63-.3a28 28 0 0 1 4.29-.32 28.57 28.57 0 0 1 3.92.26l1.21.2.67.12-.14.67a31.79 31.79 0 0 0-.7 6.66 29.83 29.83 0 0 0 .15 3c0 .5.1 1 .17 1.49l.05.35ZM177.91 75a87.59 87.59 0 0 1-4.91 9.28 89.62 89.62 0 0 1-12.95 16.42l-1.15 1.15v-1.63a28 28 0 0 1 18.17-26.12l1.51-.57ZM161.4 64.81a33.4 33.4 0 0 0 5.9-3 32.28 32.28 0 0 0 10.81-11.64l.28-.5.54.19q2.76 1 5.46 2.15l.49.2-.09.53a96.57 96.57 0 0 1-4.26 15.85l-.12.34-.36.09a31.79 31.79 0 0 0-12.27 5.63l-.47.34-.41-.41a28.34 28.34 0 0 1-5.88-8.9l-.26-.63Zm-17.79-3.32a34.75 34.75 0 0 0 .78-5.74 39.53 39.53 0 0 0-.88-10.4l-.15-.74.75-.06c1.84-.16 3.7-.27 5.55-.3 1.81 0 3.63.13 5.44.29l.75.06-.16.74a39.53 39.53 0 0 0-.95 10.51 33.16 33.16 0 0 0 .76 5.78l.15.67-.68.12a28.61 28.61 0 0 1-10.89-.13l-.66-.14Zm15.79-1.07a29.4 29.4 0 0 1-.61-4.75 36.4 36.4 0 0 1 1-10l.14-.61.61.1a94.23 94.23 0 0 1 13.17 3l.82.24-.44.74a28.25 28.25 0 0 1-8.94 9.29 27.67 27.67 0 0 1-4.84 2.49l-.73.29ZM126.05 48a93.3 93.3 0 0 1 12.66-2.83l.61-.1.14.61a35.77 35.77 0 0 1 .91 9.84 29.83 29.83 0 0 1-.6 4.61l-.17.79-.74-.32a27.11 27.11 0 0 1-4.22-2.25 28.24 28.24 0 0 1-9-9.38l-.43-.73Zm37.79 30.11q-.74.77-1.41 1.56a32 32 0 0 0-5.34 9l-.21.52-.55-.11c-.64-.13-1.3-.24-2-.33a31.89 31.89 0 0 0-4.47-.32 33.2 33.2 0 0 0-4.88.37c-.76.12-1.52.26-2.27.43l-.57.13-.2-.53a32.16 32.16 0 0 0-5.24-8.92c-.5-.6-1-1.19-1.57-1.76l-.44-.46.44-.46a32.56 32.56 0 0 0 3.87-4.91 31.83 31.83 0 0 0 3-5.79l.21-.54.56.13a32.09 32.09 0 0 0 13.59.16l.55-.11.2.52a32.13 32.13 0 0 0 6.75 10.53l.44.45Z" style="fill-rule:evenodd;fill:#fff"/><path class="cls-1" d="M87.39 217.31v-17H94a9.29 9.29 0 0 1 3.81.7 5.36 5.36 0 0 1 2.42 2 5.77 5.77 0 0 1 .85 3.18 5.7 5.7 0 0 1-.85 3.16 5.4 5.4 0 0 1-2.42 2 9.46 9.46 0 0 1-3.81.7h-5.28l1.09-1.05v6.29Zm2.42-6-1.09-1.19h5.22a5.35 5.35 0 0 0 3.52-1 3.89 3.89 0 0 0 0-5.64 5.41 5.41 0 0 0-3.52-1h-5.22l1.09-1.22Zm8.93 6-4.32-6.17H97l4.36 6.17ZM111.06 215.19H121v2.12h-12.37v-17h12v2.11h-9.55Zm-.22-7.54h8.73v2.06h-8.73ZM136.07 217.5a9.87 9.87 0 0 1-3.58-.64 8.39 8.39 0 0 1-4.72-4.58 9.17 9.17 0 0 1 0-6.93 8.45 8.45 0 0 1 4.74-4.57 10.15 10.15 0 0 1 7.2 0 7.44 7.44 0 0 1 2.83 2l-1.54 1.53a6.2 6.2 0 0 0-2.18-1.52 6.79 6.79 0 0 0-2.59-.5 7 7 0 0 0-2.66.49 6.17 6.17 0 0 0-2.12 1.36 6.07 6.07 0 0 0-1.4 2.07 7.17 7.17 0 0 0 0 5.21 6.11 6.11 0 0 0 1.4 2.08 6.48 6.48 0 0 0 2.12 1.36 7.23 7.23 0 0 0 2.66.48 6.6 6.6 0 0 0 2.59-.5 6 6 0 0 0 2.18-1.54l1.58 1.53a7.58 7.58 0 0 1-2.83 2 9.55 9.55 0 0 1-3.68.67ZM149.62 217.31v-17h6.62a9.29 9.29 0 0 1 3.81.7 5.44 5.44 0 0 1 2.43 2 5.85 5.85 0 0 1 .85 3.18 5.78 5.78 0 0 1-.85 3.16 5.48 5.48 0 0 1-2.43 2 9.46 9.46 0 0 1-3.81.7H151l1.09-1.12v6.29Zm2.43-6-1.05-1.23h5.21a5.38 5.38 0 0 0 3.53-1 3.91 3.91 0 0 0 0-5.64 5.44 5.44 0 0 0-3.53-1H151l1.09-1.22Zm8.92 6-4.31-6.17h2.59l4.37 6.17ZM177.9 217.5a7.1 7.1 0 0 1-5.26-1.92 7.56 7.56 0 0 1-1.92-5.6v-9.65h2.43v9.55a5.82 5.82 0 0 0 1.25 4.12 5.44 5.44 0 0 0 7.08 0 5.87 5.87 0 0 0 1.25-4.15v-9.55h2.35v9.7a7.6 7.6 0 0 1-1.9 5.6 7.1 7.1 0 0 1-5.28 1.9ZM193.67 217.31v-17h2.42v17ZM208.17 217.31v-14.87h-5.82v-2.11h14v2.11h-5.82v14.87Z"/></g></g></svg>