<svg version="1.1" id="Слой_1" xmlns="http://www.w3.org/2000/svg" x="0" y="0" viewBox="0 0 185.83 214.7" style="enable-background:new 0 0 185.83 214.7" xml:space="preserve"><style>.st0{fill:#fff}</style><path class="st0" d="M5.2 211.97c0-.28-.09-.51-.27-.7-.18-.19-.41-.34-.69-.44-.28-.11-.59-.21-.94-.29-.34-.09-.69-.19-1.03-.32-.34-.13-.65-.28-.94-.46a2.04 2.04 0 0 1-.69-.76c-.18-.33-.27-.72-.27-1.18 0-.7.27-1.29.81-1.76s1.27-.71 2.18-.71a3.848 3.848 0 0 1 1.74.41c.2.11.38.22.54.34.15.11.27.21.34.29l.1.13-.91.91c-.02-.02-.04-.05-.07-.09-.03-.04-.1-.1-.22-.19-.11-.09-.23-.17-.36-.23-.13-.07-.3-.13-.51-.19a2.84 2.84 0 0 0-.66-.08c-.47 0-.85.12-1.13.35-.29.23-.43.51-.43.82 0 .28.09.51.27.7.18.19.41.34.69.45.28.11.59.21.94.29.34.09.69.19 1.03.32.34.12.66.28.94.45.28.18.51.43.69.76.18.33.27.72.27 1.18 0 .8-.29 1.46-.86 1.97-.58.51-1.37.76-2.39.76-.41 0-.81-.05-1.18-.15-.37-.1-.68-.22-.92-.36-.24-.14-.45-.28-.63-.42-.18-.14-.31-.26-.39-.35l-.13-.16.91-.91c.02.03.05.06.09.11.04.05.13.13.27.25s.29.23.46.32c.17.09.38.17.66.25.27.07.56.11.87.11.56 0 1.01-.14 1.33-.41.33-.27.49-.61.49-1.01zM9.88 205.47h6.89v1.3h-2.73v7.8h-1.43v-7.8H9.88v-1.3zM22.94 212.67c.48.48 1.04.73 1.69.73.65 0 1.21-.24 1.69-.73s.71-1.07.71-1.74v-5.47h1.43v5.47c0 1.04-.37 1.93-1.12 2.66-.75.73-1.65 1.1-2.72 1.1-1.06 0-1.97-.37-2.72-1.1-.75-.74-1.12-1.62-1.12-2.66v-5.47h1.43v5.47c.02.68.25 1.26.73 1.74zM33.53 205.47h3.19c1.26 0 2.35.45 3.26 1.35.91.9 1.36 1.97 1.36 3.21s-.45 2.31-1.36 3.21c-.91.9-1.99 1.35-3.26 1.35h-3.19v-9.12zm3.19 1.3h-1.76v6.5h1.76c.88 0 1.63-.31 2.25-.94.62-.63.93-1.4.93-2.31 0-.91-.31-1.68-.93-2.31-.62-.63-1.37-.94-2.25-.94zM46.01 205.47l2.47 4.35 2.47-4.35h1.56l-3.32 5.85v3.25h-1.43v-3.25l-3.31-5.85h1.56zM56.15 213.26c.17.17.25.37.25.59 0 .23-.08.42-.25.59a.81.81 0 0 1-.59.25c-.23 0-.42-.08-.59-.25a.794.794 0 0 1-.25-.59c0-.23.08-.42.25-.59a.81.81 0 0 1 .59-.25c.22 0 .42.08.59.25zM65.1 205.47h6.89v1.3h-2.73v7.8h-1.43v-7.8H65.1v-1.3zM76.15 214.57v-9.1h3.83c.84 0 1.54.27 2.1.81.55.54.83 1.2.83 1.99 0 .37-.06.72-.19 1.04-.13.32-.28.58-.46.76-.18.19-.36.35-.53.49-.18.14-.33.24-.46.29l-.18.08 2.08 3.64h-1.56l-1.95-3.51h-2.08v3.51h-1.43zm4.9-5.24c.29-.29.43-.64.43-1.07 0-.42-.14-.78-.43-1.07-.29-.29-.64-.43-1.06-.43h-2.41v2.99h2.41c.42.01.78-.14 1.06-.42zM86.81 214.57l3.77-9.1h1.43l3.77 9.1h-1.49l-.98-2.41h-4.03l-.98 2.41h-1.49zm4.49-7.48-1.5 3.77h2.99l-1.49-3.77zM101.56 214.57l-3.58-9.1h1.5l2.79 7.28 2.8-7.28h1.49l-3.57 9.1h-1.43zM112.28 213.27h5.14v1.3h-6.56v-9.1h6.44v1.3h-5.01v2.41h3.97v1.3h-3.97v2.79zM127.81 214.57h-5.85v-9.1h1.43v7.8h4.42v1.3zM132.89 213.26c.17.17.25.37.25.59 0 .23-.08.42-.25.59a.81.81 0 0 1-.59.25c-.23 0-.42-.08-.59-.25a.794.794 0 0 1-.25-.59c0-.23.08-.42.25-.59a.81.81 0 0 1 .59-.25c.22 0 .42.08.59.25zM144.32 213.27h5.14v1.3h-6.56v-9.1h6.44v1.3h-5.01v2.41h3.97v1.3h-3.97v2.79zM152.96 214.57l3.77-9.1h1.43l3.77 9.1h-1.49l-.98-2.41h-4.03l-.98 2.41h-1.49zm4.49-7.48-1.5 3.77h2.99l-1.49-3.77zM166.09 214.57v-9.1h3.83c.84 0 1.54.27 2.1.81.55.54.83 1.2.83 1.99 0 .37-.06.72-.19 1.04-.13.32-.28.58-.46.76-.18.19-.36.35-.53.49-.18.14-.33.24-.46.29l-.18.08 2.08 3.64h-1.56l-1.95-3.51h-2.08v3.51h-1.43zm4.9-5.24c.29-.29.43-.64.43-1.07 0-.42-.14-.78-.43-1.07-.29-.29-.64-.43-1.06-.43h-2.41v2.99h2.41c.42.01.77-.14 1.06-.42zM184.09 205.47h1.43v9.1h-1.23l-5.07-6.56v6.56h-1.43v-9.1h1.23l5.07 6.57v-6.57zM18.06 192.93C6.02 192.93 0 187.09 0 175.41v-25.68h7.44v24c0 4.32.84 7.46 2.52 9.42 1.68 1.96 4.38 2.94 8.1 2.94 3.72 0 6.43-.98 8.13-2.94 1.7-1.96 2.55-5.1 2.55-9.42v-24h7.38v25.68c0 11.68-6.02 17.52-18.06 17.52zM78.86 192.15l-4.02-8.94H55.46l-4.02 8.94h-7.98l19.32-42.72h4.68l19.38 42.72h-7.98zm-13.74-32.76-3.48 8.88-3.6 8.76h14.22l-3.66-8.76-3.48-8.88zM136.97 149.49h3.9v42.66h-7.26v-26.46l-13.26 18.96h-2.94l-13.26-18.78v26.28h-7.26v-42.66h3.9l18.18 25.68 18-25.68zM155.29 192.15v-42.42h30.54v6.6h-23.22v13.98h19.86v6.6h-19.86v15.24h-7.32z"/><path d="m108.31 31.81.03-.47c.26-5.85-.69-11.52-3.19-16.82-2.56-5.41-6.47-9.86-11.16-13.54L92.74 0 91.5.98c-4.68 3.68-8.6 8.13-11.16 13.54-2.51 5.3-3.45 10.98-3.19 16.82l.02.47.21.39c1.41 2.65 2.66 5.41 3.66 8.25l.27.76-.79.13c-9.1 1.45-18.11 4.24-26.49 8.06-11.68 5.32-22.75 12.94-31.13 22.7l-2.52 2.93 14.88 1.48c3.07.3 6.11.15 9.1-.57 2.6-.62 5.05-1.64 7.34-2.99-.48-1.28-.95-2.58-1.38-3.88-2.14 1.34-4.43 2.37-6.89 2.96-2.56.61-5.17.72-7.78.47l-7.06-.7 1-.99c6.77-6.79 14.9-12.3 23.49-16.52l.78-.38.16.86c2.17 11.2 6.11 21.86 12.07 31.61 1.63 2.67 3.4 5.26 5.29 7.74l.46.61-.66.37a44.19 44.19 0 0 0-12.29 10.32c-4.2 5.1-7.21 11.08-8.77 17.5l-.85 3.47 14.24-4.48c2.11-.66 4.11-1.54 6-2.68 1.89-1.14 3.58-2.51 5.14-4.07.27-.27.53-.53.81-.78.03-.03.06-.05.08-.08-1.01-.89-2-1.8-2.97-2.73-.25.24-.51.48-.76.74-1.33 1.33-2.78 2.51-4.39 3.49-1.61.97-3.33 1.7-5.11 2.27l-7.27 2.29.49-1.29A39.76 39.76 0 0 1 62 107.99c3.31-4.01 7.38-7.35 11.96-9.81l.48-.25.34.41c5 5.81 10.67 10.99 16.83 15.54l1.2.89 1.2-.89c6.17-4.56 11.86-9.75 16.85-15.58l.35-.41.47.25a40.05 40.05 0 0 1 12.04 9.85c2.74 3.31 4.93 7.06 6.47 11.08l.5 1.29-7.27-2.29c-1.79-.56-3.5-1.29-5.11-2.27-1.61-.98-3.06-2.16-4.39-3.49-.28-.28-.56-.55-.84-.81-.97.93-1.96 1.84-2.97 2.74.06.04.11.1.17.15.27.25.55.51.81.78 1.56 1.56 3.26 2.93 5.15 4.07 1.89 1.14 3.89 2.02 5.99 2.68l14.24 4.48-.84-3.47a43.825 43.825 0 0 0-8.77-17.5c-3.45-4.18-7.64-7.7-12.36-10.37l-.67-.37.46-.6a90.97 90.97 0 0 0 5.26-7.7c5.95-9.74 9.89-20.38 12.06-31.57l.17-.86.78.39c8.56 4.21 16.66 9.71 23.4 16.47l1 1-7.29.72c-2.62.25-5.23.14-7.79-.48-2.46-.59-4.51-1.54-6.63-2.8-.43 1.3-.89 2.6-1.38 3.88 2.23 1.27 4.59 2.23 7.08 2.83 3 .72 6.04.87 9.1.57l15.14-1.48-2.53-2.94c-8.38-9.76-19.44-17.38-31.12-22.71-8.41-3.83-17.44-6.62-26.57-8.07l-.79-.13.27-.76c1.02-2.82 2.27-5.57 3.68-8.23l.18-.41zM85.2 40.18c-1.06-3.22-2.42-6.34-3.99-9.34l-.07-.13-.01-.15c-.14-4.96.71-9.82 2.84-14.32 1.96-4.15 4.87-7.69 8.32-10.69l.43-.38.44.38c3.45 3 6.35 6.54 8.32 10.69 2.13 4.5 2.98 9.36 2.84 14.32v.15l-.07.13c-1.57 3-2.93 6.12-4.01 9.33l-.17.5-.53-.05c-2.25-.22-4.5-.36-6.74-.39h-.08c-2.29.04-4.57.18-6.84.4l-.53.06-.15-.51zM62.04 68.7c-1.9-5.19-3.32-10.55-4.3-16l-.1-.52.49-.21c1.9-.81 3.84-1.56 5.79-2.25l.54-.19.27.5c2.56 4.75 6.29 8.79 10.82 11.72 1.67 1.09 3.44 2.01 5.29 2.77l.61.25-.25.63c-.67 1.66-1.49 3.25-2.46 4.75a27.417 27.417 0 0 1-3.54 4.43l-.41.42-.46-.35a32.037 32.037 0 0 0-11.82-5.52l-.35-.08-.12-.35zm3.52 5.6c4.35 1.74 8.19 4.56 11.18 8.16a27.913 27.913 0 0 1 6.44 17.32l.04 1.68-1.17-1.2c-4.76-4.84-8.97-10.18-12.51-15.98-1.79-2.93-3.4-5.96-4.83-9.08l-.69-1.51 1.54.61zm32.51 31.15c-1.57 1.37-3.19 2.7-4.84 3.97l-.41.31-.41-.31c-1.79-1.38-3.53-2.81-5.22-4.29l-.27-.23.04-.36c.06-.44.11-.89.15-1.33.08-.94.12-1.88.12-2.82 0-2.18-.22-4.37-.66-6.51l-.13-.65.65-.13c.55-.12 1.09-.22 1.64-.3 1.42-.22 2.85-.32 4.28-.32 1.31 0 2.62.08 3.92.26.41.06.81.13 1.21.2l.67.13-.15.67a32.48 32.48 0 0 0-.69 6.67c0 1 .05 2.01.15 3 .04.5.1.99.17 1.49l.05.36-.27.19zm22.94-30.46a87.44 87.44 0 0 1-4.91 9.28c-3.65 5.97-8 11.46-12.94 16.42l-1.15 1.15.01-1.62c.03-6.58 2.34-12.9 6.58-17.93 3.09-3.67 7.08-6.5 11.57-8.19l1.51-.57-.67 1.46zM104.5 64.81c2.06-.79 4.04-1.8 5.9-3a32.28 32.28 0 0 0 10.81-11.64l.27-.5.54.19c1.84.66 3.66 1.38 5.47 2.15l.49.2-.1.53c-.97 5.39-2.37 10.7-4.25 15.85l-.13.34-.36.08a32.08 32.08 0 0 0-12.27 5.63l-.47.35-.4-.41c-1.3-1.33-2.47-2.79-3.48-4.35a27.78 27.78 0 0 1-2.39-4.55l-.26-.63.63-.24zm-17.79-3.32c.43-1.89.69-3.8.79-5.73.18-3.49-.15-6.99-.88-10.4l-.15-.74.75-.06c1.85-.17 3.7-.27 5.55-.3h.02c1.82.03 3.63.13 5.44.29l.76.06-.17.74c-.76 3.44-1.12 6.98-.95 10.51.09 1.94.34 3.88.77 5.78l.15.67-.68.12c-1.68.31-3.38.46-5.09.46-1.95 0-3.89-.2-5.8-.6l-.66-.14.15-.66zm15.79-1.07c-.34-1.57-.53-3.15-.61-4.75-.16-3.35.22-6.72.98-9.98l.14-.6.61.1c4.45.67 8.86 1.68 13.17 2.96l.82.24-.44.74a28.255 28.255 0 0 1-8.94 9.29c-1.52.98-3.14 1.82-4.83 2.49l-.74.29-.16-.78zM69.15 48.03c4.15-1.23 8.38-2.18 12.66-2.83l.61-.1.14.6c.73 3.22 1.09 6.54.91 9.85a29.83 29.83 0 0 1-.6 4.61l-.17.79-.74-.32a27.11 27.11 0 0 1-4.22-2.25c-3.67-2.38-6.75-5.6-8.97-9.38l-.43-.73.81-.24zm37.79 30.11c-.49.51-.96 1.03-1.41 1.56-2.25 2.67-4.06 5.7-5.34 8.95l-.21.52-.55-.11c-.65-.13-1.3-.24-1.96-.34-1.48-.2-2.98-.31-4.47-.31-1.64 0-3.26.12-4.88.37-.76.11-1.52.26-2.27.43l-.56.13-.2-.53a32.163 32.163 0 0 0-6.81-10.68l-.44-.46.44-.46a32.498 32.498 0 0 0 6.8-10.68l.21-.54.56.13c2.35.54 4.75.81 7.16.81 2.16 0 4.32-.22 6.43-.65l.55-.11.2.52c.79 2.01 1.78 3.93 2.95 5.74 1.11 1.71 2.38 3.31 3.8 4.79l.44.46-.44.46z" style="fill-rule:evenodd;clip-rule:evenodd;fill:#fff"/></svg>