<svg width="70" height="58" fill="none" xmlns="http://www.w3.org/2000/svg"><path d="M63.557 9.332h-6.965a2.325 2.325 0 0 1-1.656-.686L48.821 2.53A6.4 6.4 0 0 0 44.265.644H25.749a6.4 6.4 0 0 0-4.556 1.887l-6.115 6.115a2.326 2.326 0 0 1-1.656.686H6.455a6.451 6.451 0 0 0-6.443 6.44L0 50.913a6.44 6.44 0 0 0 6.443 6.444h57.114A6.45 6.45 0 0 0 70 50.913V15.775a6.44 6.44 0 0 0-6.443-6.443Zm2.341 41.581a2.344 2.344 0 0 1-2.341 2.342H6.443a2.34 2.34 0 0 1-2.341-2.343l.012-35.138c0-1.29 1.05-2.341 2.341-2.341h6.967a6.4 6.4 0 0 0 4.556-1.887l6.115-6.115a2.326 2.326 0 0 1 1.656-.686h18.516c.625 0 1.213.243 1.656.686l6.115 6.115a6.4 6.4 0 0 0 4.556 1.887h6.965a2.34 2.34 0 0 1 2.341 2.342v35.138Z" fill="#D8D8D8"/><path d="M35.007 15.92c-8.397 0-15.228 6.831-15.228 15.228 0 8.396 6.831 15.227 15.228 15.227 8.397 0 15.228-6.83 15.228-15.227S43.404 15.92 35.007 15.92Zm0 26.354c-6.135 0-11.126-4.991-11.126-11.126S28.872 20.02 35.007 20.02s11.126 4.992 11.126 11.127c0 6.135-4.991 11.126-11.126 11.126ZM6.457 4.745h4.392a2.05 2.05 0 0 0 0-4.101H6.457a2.05 2.05 0 0 0 0 4.101Z" fill="#D8D8D8"/></svg>