<svg width="12" height="12" fill="none" xmlns="http://www.w3.org/2000/svg"><path d="M4.945 6.352h2.11v.703h-2.11v-.703Z" fill="#C99E78"/><path d="M9.735 7.055H7.758v.351a.351.351 0 0 1-.352.352H4.594a.351.351 0 0 1-.352-.352v-.351H2.265c-.455 0-.857-.29-1-.721L0 2.54v7.678c0 .581.473 1.055 1.055 1.055h9.89c.582 0 1.055-.474 1.055-1.055V2.54l-1.264 3.793a1.053 1.053 0 0 1-1 .72Z" fill="#C99E78"/><path d="M7.407.727H4.594C4.013.727 3.54 1.2 3.54 1.78v.352H.605L1.931 6.11c.048.144.183.24.334.24h1.978V6c0-.194.157-.352.351-.352h2.813c.194 0 .351.158.351.352v.352h1.978a.351.351 0 0 0 .334-.24l1.326-3.98H8.462v-.35c0-.582-.474-1.055-1.055-1.055ZM4.243 2.133V1.78c0-.194.157-.351.351-.351h2.813c.194 0 .351.157.351.351v.352H4.243Z" fill="#C99E78"/></svg>