<svg width="36" height="36" viewBox="0 0 36 36" fill="none" xmlns="http://www.w3.org/2000/svg">
<path d="M10.1748 14.0869H7.04435C6.61235 14.0869 6.26172 14.4375 6.26172 14.8695V21.1304C6.26172 21.5624 6.61235 21.913 7.04435 21.913C7.47635 21.913 7.82698 21.5624 7.82698 21.1304V15.6521H10.1748C10.6068 15.6521 10.9574 15.3015 10.9574 14.8695C10.9574 14.4375 10.6068 14.0869 10.1748 14.0869Z" fill="#023333"/>
<path d="M8.60954 17.2178H7.04435C6.61235 17.2178 6.26172 17.5684 6.26172 18.0004C6.26172 18.4324 6.61235 18.783 7.04435 18.783H8.60954C9.04154 18.783 9.39217 18.4323 9.39217 18.0003C9.39217 17.5683 9.04154 17.2178 8.60954 17.2178Z" fill="#023333"/>
<path d="M18 0C8.07498 0 0 8.07498 0 18C0 27.925 8.07498 35.9999 18 35.9999C27.925 35.9999 35.9999 27.925 35.9999 18C35.9999 8.07498 27.925 0 18 0ZM18 34.4347C8.93736 34.4347 1.56519 27.0626 1.56519 18C1.56519 8.93736 8.93736 1.56519 18 1.56519C27.0626 1.56519 34.4347 8.93736 34.4347 18C34.4347 27.0626 27.0626 34.4347 18 34.4347Z" fill="#023333"/>
<path d="M28.3736 9.68363C25.8301 6.51407 22.0486 4.69531 17.9978 4.69531C13.947 4.69531 10.1654 6.51407 7.62192 9.68363C7.35111 10.0202 7.40438 10.5132 7.74246 10.784C8.07901 11.0548 8.57205 11.0015 8.84125 10.6634C11.0873 7.8648 14.4244 6.26043 17.9978 6.26043C21.5712 6.26043 24.9082 7.8648 27.1527 10.6634C27.3077 10.8559 27.5346 10.9561 27.7632 10.9561C27.9369 10.9561 28.1091 10.8997 28.2531 10.7839C28.5911 10.5132 28.6444 10.0202 28.3736 9.68363Z" fill="#023333"/>
<path d="M27.6176 26.0401C27.3077 25.7442 26.8099 25.7568 26.5126 26.0698C24.2665 28.4348 21.2441 29.7386 18.0009 29.7386C14.7578 29.7386 11.7354 28.4348 9.49085 26.0698C9.19502 25.7536 8.69729 25.7442 8.38583 26.0401C8.06968 26.3374 8.05868 26.8336 8.35612 27.1467C10.8996 29.8279 14.3243 31.3039 18.001 31.3039C21.6777 31.3039 25.1023 29.8279 27.6474 27.1467C27.9448 26.8336 27.9322 26.3374 27.6176 26.0401Z" fill="#023333"/>
<path d="M15.1749 18.7622C16.3269 18.6135 17.2191 17.6259 17.2191 16.4347C17.2191 15.1403 16.1657 14.0869 14.8713 14.0869H13.3061C12.8741 14.0869 12.5234 14.4375 12.5234 14.8695V17.9937C12.5234 17.9968 12.5234 18.0015 12.5234 18.0046V21.1304C12.5234 21.5624 12.8741 21.913 13.3061 21.913C13.7381 21.913 14.0887 21.5624 14.0887 21.1304V19.8892L15.8824 21.6845C16.0359 21.8363 16.2362 21.913 16.4365 21.913C16.6369 21.913 16.8372 21.8363 16.9891 21.6829C17.2943 21.3777 17.2943 20.8815 16.9891 20.5763L15.1749 18.7622ZM14.0887 17.2174V15.6522H14.8713C15.3018 15.6522 15.654 16.0028 15.654 16.4348C15.654 16.8668 15.3018 17.2174 14.8713 17.2174H14.0887V17.2174Z" fill="#023333"/>
<path d="M22.6943 20.3478H20.3465V15.6521H22.6943C23.1263 15.6521 23.477 15.3015 23.477 14.8695C23.477 14.4375 23.1263 14.0869 22.6943 14.0869H19.5639C19.1319 14.0869 18.7812 14.4375 18.7812 14.8695V21.1304C18.7812 21.5624 19.1319 21.913 19.5639 21.913H22.6943C23.1263 21.913 23.477 21.5624 23.477 21.1304C23.477 20.6984 23.1263 20.3478 22.6943 20.3478Z" fill="#023333"/>
<path d="M21.1291 17.2178H19.5639C19.1319 17.2178 18.7812 17.5684 18.7812 18.0004C18.7812 18.4324 19.1319 18.783 19.5639 18.783H21.1291C21.5611 18.783 21.9117 18.4323 21.9117 18.0003C21.9117 17.5683 21.5611 17.2178 21.1291 17.2178Z" fill="#023333"/>
<path d="M28.9561 20.3478H26.6082V15.6521H28.9561C29.3881 15.6521 29.7387 15.3015 29.7387 14.8695C29.7387 14.4375 29.3881 14.0869 28.9561 14.0869H25.8256C25.3936 14.0869 25.043 14.4375 25.043 14.8695V21.1304C25.043 21.5624 25.3936 21.913 25.8256 21.913H28.9561C29.3881 21.913 29.7387 21.5624 29.7387 21.1304C29.7387 20.6984 29.3881 20.3478 28.9561 20.3478Z" fill="#023333"/>
<path d="M27.3908 17.2178H25.8256C25.3936 17.2178 25.043 17.5684 25.043 18.0004C25.043 18.4324 25.3936 18.783 25.8256 18.783H27.3908C27.8228 18.783 28.1734 18.4323 28.1734 18.0003C28.1734 17.5683 27.8228 17.2178 27.3908 17.2178Z" fill="#023333"/>
</svg>
