<svg width="28" height="32" viewBox="0 0 28 32" fill="none" xmlns="http://www.w3.org/2000/svg">
<path d="M3.32891 25.5997C2.48021 25.5997 1.66628 25.2625 1.06616 24.6624C0.466048 24.0623 0.128906 23.2484 0.128906 22.3997V15.9997C0.128906 15.7159 0.241638 15.4437 0.442302 15.2431C0.642966 15.0424 0.915125 14.9297 1.19891 14.9297H3.32891C4.1776 14.9297 4.99153 15.2668 5.59165 15.8669C6.19176 16.4671 6.52891 17.281 6.52891 18.1297V22.3997C6.52891 23.2484 6.19176 24.0623 5.59165 24.6624C4.99153 25.2625 4.1776 25.5997 3.32891 25.5997ZM2.25891 17.0597V22.3997C2.28458 22.6643 2.40787 22.9099 2.60476 23.0887C2.80164 23.2674 3.05801 23.3664 3.32391 23.3664C3.5898 23.3664 3.84617 23.2674 4.04305 23.0887C4.23994 22.9099 4.36323 22.6643 4.38891 22.3997V18.1297C4.38891 17.8459 4.27618 17.5737 4.07551 17.3731C3.87485 17.1724 3.60269 17.0597 3.31891 17.0597H2.25891Z" fill="#023333"/>
<path d="M1.36902 12.7898H1.19902C0.919289 12.7432 0.66948 12.5875 0.504476 12.3569C0.339471 12.1262 0.272768 11.8395 0.31902 11.5598C0.743159 9.05002 1.84974 6.70539 3.51757 4.78262C5.1854 2.85986 7.35017 1.43311 9.7748 0.658635C12.1994 -0.115845 14.7904 -0.208192 17.2641 0.391705C19.7377 0.991602 21.9985 2.26061 23.799 4.05976C25.8384 6.09054 27.1885 8.71044 27.659 11.5498C27.6985 11.6941 27.7072 11.8452 27.6846 11.9931C27.6621 12.1411 27.6087 12.2827 27.528 12.4087C27.4473 12.5348 27.3411 12.6425 27.2161 12.7249C27.0912 12.8073 26.9504 12.8626 26.8028 12.8872C26.6551 12.9118 26.504 12.9052 26.3591 12.8677C26.2142 12.8303 26.0787 12.7629 25.9615 12.6698C25.8443 12.5767 25.7479 12.4601 25.6786 12.3275C25.6093 12.1948 25.5685 12.0491 25.559 11.8998C25.0959 9.16766 23.6804 6.68776 21.5636 4.89954C19.4467 3.11133 16.7651 2.13029 13.994 2.13029C11.2229 2.13029 8.54135 3.11133 6.42448 4.89954C4.30761 6.68776 2.89217 9.16766 2.42902 11.8998C2.38638 12.1496 2.25643 12.3762 2.0623 12.5392C1.86818 12.7022 1.62249 12.791 1.36902 12.7898Z" fill="#023333"/>
<path d="M9.59844 6.39965C9.3656 6.39139 9.14182 6.30735 8.9611 6.1603C8.78038 6.01326 8.65259 5.81124 8.59714 5.58495C8.5417 5.35865 8.56164 5.12045 8.65392 4.90651C8.7462 4.69258 8.90579 4.51462 9.10844 4.39965C10.6231 3.63417 12.2964 3.23535 13.9934 3.23535C15.6905 3.23535 17.3638 3.63417 18.8784 4.39965C19.0085 4.46186 19.1246 4.54971 19.2199 4.65792C19.3151 4.76612 19.3875 4.89247 19.4327 5.02935C19.4779 5.16624 19.495 5.31085 19.483 5.45451C19.4709 5.59816 19.4299 5.73789 19.3625 5.86531C19.2951 5.99274 19.2026 6.10522 19.0906 6.19602C18.9786 6.28681 18.8495 6.35404 18.7109 6.39367C18.5723 6.43331 18.4271 6.44452 18.284 6.42665C18.141 6.40877 18.003 6.36217 17.8784 6.28965C16.67 5.67014 15.3315 5.34704 13.9734 5.34704C12.6154 5.34704 11.2769 5.67014 10.0684 6.28965C9.92232 6.36198 9.76148 6.39962 9.59844 6.39965Z" fill="#023333"/>
<path d="M26.8088 14.9297H24.6688C23.8201 14.9297 23.0062 15.2668 22.4061 15.8669C21.806 16.4671 21.4688 17.281 21.4688 18.1297V22.3997C21.4688 23.2484 21.806 24.0623 22.4061 24.6624C23.0062 25.2626 23.8201 25.5997 24.6688 25.5997C24.9812 25.5955 25.2913 25.5449 25.5888 25.4497C25.3949 26.109 24.9933 26.6881 24.4438 27.1007C23.8942 27.5133 23.2261 27.7375 22.5388 27.7397H16.9988C16.7475 27.0277 16.2526 26.4275 15.6015 26.0452C14.9505 25.6629 14.1852 25.5232 13.441 25.6506C12.6968 25.7781 12.0217 26.1646 11.5349 26.7418C11.0482 27.319 10.7813 28.0497 10.7812 28.8047C10.7812 29.5597 11.0482 30.2904 11.5349 30.8676C12.0217 31.4448 12.6968 31.8313 13.441 31.9588C14.1852 32.0862 14.9505 31.9465 15.6015 31.5642C16.2526 31.1819 16.7475 30.5817 16.9988 29.8697H22.5388C23.9516 29.8671 25.3058 29.3047 26.3048 28.3057C27.3038 27.3067 27.8662 25.9525 27.8688 24.5397V15.9997C27.8688 15.7176 27.7575 15.447 27.559 15.2466C27.3605 15.0462 27.0909 14.9323 26.8088 14.9297ZM13.9988 29.8697C13.7872 29.8697 13.5803 29.807 13.4044 29.6894C13.2284 29.5718 13.0913 29.4047 13.0103 29.2092C12.9293 29.0137 12.9081 28.7985 12.9494 28.591C12.9907 28.3834 13.0926 28.1927 13.2422 28.0431C13.3919 27.8935 13.5825 27.7915 13.7901 27.7503C13.9976 27.709 14.2128 27.7302 14.4083 27.8112C14.6038 27.8921 14.7709 28.0293 14.8885 28.2052C15.0061 28.3812 15.0688 28.5881 15.0688 28.7997C15.0688 29.0835 14.9561 29.3556 14.7554 29.5563C14.5548 29.757 14.2826 29.8697 13.9988 29.8697ZM25.7388 22.3997C25.7132 22.6643 25.5899 22.91 25.393 23.0887C25.1961 23.2674 24.9397 23.3664 24.6738 23.3664C24.4079 23.3664 24.1516 23.2674 23.9547 23.0887C23.7578 22.91 23.6345 22.6643 23.6088 22.3997V18.1297C23.6088 17.8459 23.7216 17.5738 23.9222 17.3731C24.1229 17.1724 24.395 17.0597 24.6788 17.0597H25.7488L25.7388 22.3997Z" fill="#023333"/>
</svg>
