<svg width="36" height="36" viewBox="0 0 36 36" fill="none" xmlns="http://www.w3.org/2000/svg">
<g clip-path="url(#clip0_417_9812)">
<path d="M21.6343 32.7903C21.3375 32.8643 21.0348 32.93 20.7344 32.9853C19.9491 33.1314 19.4299 33.8866 19.5751 34.6726C19.6469 35.0593 19.8665 35.3814 20.1647 35.5917C20.472 35.808 20.8631 35.9056 21.2616 35.8315C21.6194 35.7651 21.9799 35.687 22.3337 35.5987C23.1092 35.4057 23.5817 34.6201 23.3882 33.845C23.1952 33.0692 22.4103 32.5972 21.6343 32.7903Z" fill="#023333"/>
<path d="M32.338 13.3917C32.4393 13.6972 32.6329 13.9466 32.8774 14.119C33.2398 14.3742 33.7141 14.4601 34.1668 14.3105C34.9256 14.0585 35.3368 13.2402 35.0857 12.4818C34.9713 12.136 34.8444 11.7892 34.7092 11.4515C34.4124 10.7093 33.5706 10.348 32.8281 10.6449C32.0863 10.9416 31.7248 11.7836 32.0219 12.526C32.1355 12.8098 32.2419 13.1012 32.338 13.3917Z" fill="#023333"/>
<path d="M26.3405 30.7234C26.0853 30.892 25.8218 31.0551 25.5563 31.2079C24.8638 31.6074 24.6266 32.4926 25.0259 33.1849C25.1343 33.3731 25.2787 33.5271 25.445 33.6447C25.8915 33.9588 26.4978 34.0058 27.0026 33.715C27.3182 33.533 27.632 33.3394 27.936 33.1383C28.6026 32.6979 28.7861 31.8 28.3455 31.1331C27.9049 30.466 27.0074 30.2827 26.3405 30.7234Z" fill="#023333"/>
<path d="M35.987 17.4334C35.9555 16.6346 35.2827 16.0129 34.4837 16.0441C33.6857 16.0756 33.0635 16.7486 33.0949 17.5471C33.1069 17.8524 33.11 18.1622 33.1029 18.4672C33.0917 18.9681 33.3367 19.4146 33.7175 19.683C33.9443 19.8427 34.2195 19.9394 34.518 19.9462C35.3168 19.9639 35.9788 19.3304 35.9965 18.5312C36.0045 18.1668 36.0014 17.7976 35.987 17.4334Z" fill="#023333"/>
<path d="M32.103 26.916C31.4625 26.4354 30.5563 26.5659 30.0766 27.2052C29.8929 27.4501 29.6994 27.6919 29.5013 27.9248C28.9836 28.533 29.0567 29.4467 29.665 29.9648C29.6997 29.9942 29.7347 30.0212 29.7711 30.0466C30.3758 30.4729 31.2162 30.3749 31.7051 29.8012C31.9417 29.5234 32.1723 29.2345 32.3918 28.942C32.8716 28.3027 32.7418 27.3959 32.103 26.916Z" fill="#023333"/>
<path d="M34.2307 21.6848C33.4681 21.4457 32.6559 21.8702 32.4169 22.6329C32.3255 22.9242 32.2241 23.217 32.1147 23.5037C31.8744 24.1349 32.1046 24.8293 32.6324 25.2015C32.7292 25.2695 32.8358 25.3272 32.9517 25.371C33.6984 25.6559 34.5345 25.2813 34.8192 24.5343C34.9491 24.1934 35.0697 23.8451 35.1787 23.4987C35.4174 22.7359 34.9932 21.9239 34.2307 21.6848Z" fill="#023333"/>
<path d="M15.3223 32.9978C14.0284 32.7655 12.7872 32.3699 11.6103 31.8182C11.5964 31.8109 11.5839 31.8026 11.5693 31.7959C11.2919 31.6654 11.015 31.5256 10.7467 31.3795C10.7457 31.3784 10.744 31.3777 10.7425 31.3771C10.2501 31.1059 9.76958 30.8059 9.3027 30.4772C2.4949 25.6816 0.858027 16.2414 5.65395 9.4337C6.69681 7.95392 7.95882 6.71938 9.36578 5.74091C9.38311 5.72884 9.40044 5.71684 9.41762 5.70469C14.3755 2.28856 21.1076 2.05834 26.3721 5.56873L25.2414 7.20242C24.927 7.65715 25.1204 7.98851 25.6707 7.93898L30.5822 7.49928C31.1332 7.44975 31.4627 6.97313 31.3145 6.44102L29.9956 1.68905C29.8479 1.15633 29.4699 1.09256 29.1553 1.54721L28.0219 3.18477C24.1585 0.591333 19.5247 -0.397584 14.9254 0.399957C14.4622 0.480129 14.0055 0.578254 13.555 0.692476C13.5515 0.693095 13.5487 0.693482 13.5459 0.694101C13.5285 0.698358 13.5109 0.704007 13.4939 0.708727C9.5279 1.72721 6.06758 4.04035 3.59842 7.34071C3.57761 7.3654 3.55617 7.38954 3.53651 7.4164C3.45441 7.52698 3.37292 7.64012 3.29314 7.75326C3.16266 7.93868 3.03405 8.12874 2.911 8.3188C2.8956 8.3417 2.88384 8.365 2.87037 8.38813C0.8328 11.5456 -0.150004 15.1959 0.0185433 18.9121C0.0189302 18.9243 0.0182338 18.9366 0.0185433 18.9492C0.0348718 19.3122 0.0636594 19.6802 0.102739 20.0426C0.104829 20.0659 0.110014 20.0881 0.11396 20.1114C0.154356 20.4758 0.205044 20.8409 0.268578 21.2061C0.914287 24.9313 2.67157 28.2834 5.30479 30.8917C5.3109 30.8978 5.31725 30.9045 5.32344 30.9108C5.3256 30.9132 5.328 30.9144 5.33009 30.9167C6.03755 31.6145 6.80708 32.2599 7.63565 32.8434C9.80401 34.3714 12.2185 35.3813 14.8116 35.8466C15.5984 35.988 16.3499 35.4643 16.4911 34.6779C16.6322 33.8909 16.1089 33.1388 15.3223 32.9978Z" fill="#023333"/>
<path d="M17.1128 6.43848C16.4656 6.43848 15.9414 6.96315 15.9414 7.60941V19.2751L26.6106 24.7905C26.7824 24.8794 26.9662 24.9213 27.1472 24.9213C27.5709 24.9213 27.9802 24.6905 28.1883 24.2879C28.4851 23.7132 28.2605 23.0072 27.6858 22.7104L18.2829 17.8492V7.60941C18.2828 6.96315 17.7592 6.43848 17.1128 6.43848Z" fill="#023333"/>
</g>
<defs>
<clipPath id="clip0_417_9812">
<rect width="36" height="36" fill="white"/>
</clipPath>
</defs>
</svg>
