<svg width="28" height="32" viewBox="0 0 28 32" fill="none" xmlns="http://www.w3.org/2000/svg">
<path d="M23.1881 16.2155C23.0779 16.1028 22.9464 16.0132 22.8012 15.9519C22.656 15.8906 22.5001 15.8588 22.3425 15.8584C22.1849 15.858 22.0288 15.8889 21.8833 15.9494C21.7378 16.0099 21.6058 16.0988 21.4949 16.2109C21.3841 16.3229 21.2967 16.4559 21.2378 16.6021C21.1789 16.7482 21.1497 16.9047 21.1519 17.0622C21.154 17.2198 21.1875 17.3754 21.2504 17.5199C21.3133 17.6644 21.4044 17.7949 21.5182 17.9039C22.5257 18.8952 23.325 20.0779 23.8693 21.3823C24.4135 22.6868 24.6917 24.0869 24.6876 25.5003C24.6876 26.9527 20.5243 29.0628 14.0001 29.0628C7.47581 29.0628 3.31256 26.9517 3.31256 25.4979C3.30856 24.0942 3.58304 22.7036 4.1201 21.4066C4.65717 20.1097 5.44615 18.9322 6.44138 17.9422C6.55395 17.8325 6.6436 17.7015 6.70514 17.5568C6.76668 17.4121 6.79888 17.2567 6.79988 17.0995C6.80087 16.9423 6.77064 16.7864 6.71094 16.641C6.65124 16.4956 6.56325 16.3634 6.45209 16.2523C6.34092 16.1411 6.20879 16.0531 6.06336 15.9934C5.91792 15.9337 5.76208 15.9035 5.60488 15.9045C5.44767 15.9055 5.29222 15.9377 5.14756 15.9992C5.00289 16.0607 4.87189 16.1504 4.76214 16.263C3.54545 17.4733 2.58094 18.9129 1.92444 20.4985C1.26795 22.0841 0.932511 23.7842 0.937556 25.5003C0.937556 29.3568 7.66712 31.4378 14.0001 31.4378C20.333 31.4378 27.0626 29.3568 27.0626 25.5003C27.0678 23.7726 26.7278 22.0613 26.0625 20.4668C25.3971 18.8724 24.4199 17.427 23.1881 16.2155Z" fill="#023333"/>
<path d="M14 17.1875C15.6441 17.1875 17.2512 16.7 18.6182 15.7866C19.9852 14.8732 21.0506 13.575 21.6797 12.056C22.3089 10.5371 22.4735 8.86578 22.1528 7.25331C21.832 5.64084 21.0403 4.1597 19.8778 2.99718C18.7153 1.83465 17.2342 1.04297 15.6217 0.722226C14.0092 0.401487 12.3379 0.566102 10.8189 1.19525C9.30003 1.82441 8.0018 2.88984 7.08841 4.25682C6.17502 5.62381 5.6875 7.23094 5.6875 8.875C5.69005 11.0788 6.56664 13.1917 8.12499 14.75C9.68333 16.3083 11.7962 17.1849 14 17.1875ZM14 2.9375C15.1743 2.9375 16.3223 3.28573 17.2987 3.93815C18.2751 4.59057 19.0361 5.51788 19.4855 6.60282C19.9349 7.68775 20.0525 8.88158 19.8234 10.0333C19.5943 11.1851 19.0288 12.2431 18.1984 13.0734C17.3681 13.9038 16.3101 14.4693 15.1583 14.6984C14.0066 14.9275 12.8128 14.8099 11.7278 14.3605C10.6429 13.9111 9.71557 13.1501 9.06315 12.1737C8.41073 11.1973 8.0625 10.0493 8.0625 8.875C8.06435 7.30084 8.69051 5.7917 9.8036 4.6786C10.9167 3.56551 12.4258 2.93936 14 2.9375Z" fill="#023333"/>
</svg>
