<svg width="32" height="32" viewBox="0 0 32 32" fill="none" xmlns="http://www.w3.org/2000/svg">
<g clip-path="url(#clip0_417_9833)">
<path d="M24.6252 8.62476C24.6252 7.93441 24.0656 7.3748 23.3752 7.3748H13.5422C12.8518 7.3748 12.2922 7.93441 12.2922 8.62476C12.2922 9.31512 12.8518 9.87473 13.5422 9.87473H23.3752C24.0656 9.87473 24.6252 9.31512 24.6252 8.62476ZM23.3752 14.7913H13.5422C12.8518 14.7913 12.2922 14.2317 12.2922 13.5413C12.2922 12.851 12.8518 12.2914 13.5422 12.2914H23.3752C24.0656 12.2914 24.6252 12.851 24.6252 13.5413C24.6252 14.2317 24.0656 14.7913 23.3752 14.7913ZM0.000875473 8.66645V30.7492C0.000875473 31.8663 1.35259 32.415 2.13475 31.6331L6.68519 27.0826H23.3336C25.2112 27.0826 26.7708 25.6953 27.0416 23.8919L29.8662 26.7165C30.6468 27.4969 32 26.9527 32 25.8325V3.7499C32 1.6822 30.3178 0 28.2501 0H8.66733C6.59963 0 4.91743 1.6822 4.91743 3.7499V4.91655H3.75077C1.68308 4.91655 0.000875473 6.59876 0.000875473 8.66645ZM29.5001 22.8149L26.7174 20.0323C26.49 19.8055 26.1734 19.6662 25.8335 19.6662H8.66733C7.97809 19.6662 7.41736 19.1055 7.41736 18.4162V3.7499C7.41736 3.06067 7.97809 2.49993 8.66733 2.49993H28.2501C28.9393 2.49993 29.5001 3.06067 29.5001 3.7499V22.8149ZM2.50081 8.66645C2.50081 7.97722 3.06154 7.41648 3.75077 7.41648H4.91743V18.4162C4.91743 20.4839 6.59963 22.1661 8.66733 22.1661H24.5836V23.3327C24.5836 24.0219 24.0228 24.5826 23.3336 24.5826H6.16739C5.83584 24.5826 5.51791 24.7143 5.28348 24.9487L2.50081 27.7314V8.66645Z" fill="#023333"/>
</g>
<defs>
<clipPath id="clip0_417_9833">
<rect width="32" height="32" fill="white" transform="matrix(-1 0 0 1 32 0)"/>
</clipPath>
</defs>
</svg>
