<svg width="63" height="63" viewBox="0 0 63 63" fill="none" xmlns="http://www.w3.org/2000/svg">
<circle cx="31.5" cy="31.5" r="31.5" fill="#F6F6F6"/>
<path d="M39.9233 35.6201C37.6297 35.6201 35.7637 37.4861 35.7637 39.7798C35.7637 42.0735 37.6297 43.9395 39.9233 43.9395C42.2174 43.9395 44.083 42.0735 44.083 39.7798C44.083 37.4861 42.217 35.6201 39.9233 35.6201ZM39.9233 41.8596C38.7763 41.8596 37.8435 40.9268 37.8435 39.7798C37.8435 38.6328 38.7763 37.7 39.9233 37.7C41.0704 37.7 42.0032 38.6328 42.0032 39.7798C42.0032 40.9269 41.0704 41.8596 39.9233 41.8596Z" fill="#023333"/>
<path d="M25.7114 35.6201C23.4177 35.6201 21.5518 37.4861 21.5518 39.7798C21.5518 42.0735 23.4177 43.9395 25.7114 43.9395C28.0051 43.9395 29.8711 42.0735 29.8711 39.7798C29.8711 37.4861 28.0051 35.6201 25.7114 35.6201ZM25.7114 41.8596C24.5644 41.8596 23.6316 40.9268 23.6316 39.7798C23.6316 38.6328 24.5644 37.7 25.7114 37.7C26.8581 37.7 27.7913 38.6328 27.7913 39.7798C27.7913 40.9269 26.8584 41.8596 25.7114 41.8596Z" fill="#023333"/>
<path d="M42.7246 23.7133C42.5478 23.3622 42.1884 23.1406 41.7953 23.1406H36.3184V25.2205H41.154L43.9856 30.8526L45.8443 29.9181L42.7246 23.7133Z" fill="#023333"/>
<path d="M36.8033 38.7744H28.9346V40.8543H36.8033V38.7744Z" fill="#023333"/>
<path d="M22.5912 38.7744H18.9862C18.4118 38.7744 17.9463 39.24 17.9463 39.8143C17.9463 40.3887 18.4118 40.8542 18.9862 40.8542H22.5912C23.1656 40.8542 23.6311 40.3886 23.6311 39.8143C23.6311 39.2399 23.1656 38.7744 22.5912 38.7744Z" fill="#023333"/>
<path d="M47.7814 32.4164L45.7359 29.782C45.5394 29.5282 45.2361 29.3798 44.9148 29.3798H37.358V22.1004C37.358 21.526 36.8925 21.0605 36.3181 21.0605H18.9862C18.4118 21.0605 17.9463 21.5261 17.9463 22.1004C17.9463 22.6748 18.4118 23.1403 18.9862 23.1403H35.2782V30.4197C35.2782 30.9941 35.7437 31.4596 36.3181 31.4596H44.4055L45.92 33.4105V38.7737H43.0428C42.4684 38.7737 42.003 39.2392 42.003 39.8136C42.003 40.388 42.4685 40.8535 43.0428 40.8535H46.9598C47.5343 40.8535 47.9997 40.3879 47.9998 39.8136V33.0542C47.9998 32.8234 47.9228 32.5988 47.7814 32.4164Z" fill="#023333"/>
<path d="M22.5218 33.5049H17.7381C17.1637 33.5049 16.6982 33.9704 16.6982 34.5448C16.6982 35.1192 17.1638 35.5847 17.7381 35.5847H22.5217C23.0961 35.5847 23.5616 35.1191 23.5616 34.5448C23.5617 33.9704 23.0961 33.5049 22.5218 33.5049Z" fill="#023333"/>
<path d="M24.9139 29.415H16.0399C15.4655 29.415 15 29.8806 15 30.455C15 31.0294 15.4655 31.4949 16.0399 31.4949H24.9139C25.4883 31.4949 25.9537 31.0293 25.9537 30.455C25.9537 29.8806 25.4883 29.415 24.9139 29.415Z" fill="#023333"/>
<path d="M26.6121 25.3242H17.7381C17.1637 25.3242 16.6982 25.7898 16.6982 26.3641C16.6982 26.9385 17.1638 27.404 17.7381 27.404H26.6121C27.1865 27.404 27.652 26.9384 27.652 26.3641C27.6521 25.7898 27.1865 25.3242 26.6121 25.3242Z" fill="#023333"/>
</svg>
