<svg width="63" height="63" viewBox="0 0 63 63" fill="none" xmlns="http://www.w3.org/2000/svg">
<circle cx="31.5" cy="31.5" r="31.5" fill="#F6F6F6"/>
<path d="M38.3399 29.3203C38.3399 28.6515 37.7977 28.1094 37.1289 28.1094H24.6563C23.9874 28.1094 23.4453 28.6515 23.4453 29.3203C23.4453 29.9891 23.9874 30.5312 24.6563 30.5312H37.1289C37.7977 30.5312 38.3399 29.9891 38.3399 29.3203Z" fill="#023333"/>
<path d="M24.6562 32.9531C23.9874 32.9531 23.4453 33.4953 23.4453 34.1641C23.4453 34.8329 23.9874 35.375 24.6562 35.375H32.2313C32.9001 35.375 33.4423 34.8329 33.4423 34.1641C33.4423 33.4953 32.9001 32.9531 32.2313 32.9531H24.6562Z" fill="#023333"/>
<path d="M27.5021 44.5781H23.4521C22.1167 44.5781 21.0303 43.4917 21.0303 42.1562V20.8438C21.0303 19.5083 22.1167 18.4219 23.4521 18.4219H38.34C39.6754 18.4219 40.7618 19.5083 40.7618 20.8438V28.291C40.7618 28.9598 41.304 29.502 41.9728 29.502C42.6416 29.502 43.1837 28.9598 43.1837 28.291V20.8438C43.1837 18.1729 41.0108 16 38.34 16H23.4521C20.7813 16 18.6084 18.1729 18.6084 20.8438V42.1562C18.6084 44.8271 20.7813 47 23.4521 47H27.5021C28.1709 47 28.713 46.4579 28.713 45.7891C28.713 45.1203 28.1709 44.5781 27.5021 44.5781Z" fill="#023333"/>
<path d="M45.3286 33.5322C43.9122 32.1158 41.6075 32.1157 40.192 33.5312L33.5437 40.1647C33.4025 40.3056 33.2984 40.4792 33.2404 40.67L31.7925 45.4365C31.6642 45.8592 31.776 46.318 32.0844 46.6342C32.3155 46.871 32.6294 46.9995 32.9513 46.9995C33.059 46.9995 33.1677 46.9851 33.2745 46.9555L38.1621 45.6016C38.3633 45.5459 38.5466 45.4391 38.6943 45.2917L45.3286 38.6698C46.7451 37.2534 46.7451 34.9487 45.3286 33.5322ZM37.2088 43.3526L34.7498 44.0338L35.4694 41.6647L39.9553 37.1887L41.6682 38.9016L37.2088 43.3526ZM43.617 36.9566L43.3824 37.1907L41.6698 35.4782L41.9036 35.2448C42.3758 34.7727 43.144 34.7727 43.6161 35.2448C44.0883 35.717 44.0883 36.4852 43.617 36.9566Z" fill="#023333"/>
<path d="M37.1289 23.2656H24.6563C23.9874 23.2656 23.4453 23.8078 23.4453 24.4766C23.4453 25.1454 23.9874 25.6875 24.6563 25.6875H37.1289C37.7977 25.6875 38.3399 25.1454 38.3399 24.4766C38.3399 23.8078 37.7977 23.2656 37.1289 23.2656Z" fill="#023333"/>
</svg>
