<svg width="63" height="63" viewBox="0 0 63 63" fill="none" xmlns="http://www.w3.org/2000/svg">
<circle cx="31.5" cy="31.5" r="31.5" fill="#F6F6F6"/>
<path d="M30.1303 18.4941C23.7253 18.4941 18.5078 23.7116 18.5078 30.1166C18.5078 36.5216 23.7253 41.7493 30.1303 41.7493C32.8661 41.7493 35.3821 40.7905 37.3707 39.1987L42.2119 44.0373C42.4562 44.2715 42.7825 44.4008 43.1209 44.3973C43.4594 44.3938 43.783 44.258 44.0224 44.0189C44.2619 43.7797 44.3982 43.4564 44.4021 43.118C44.4061 42.7796 44.2773 42.4531 44.0435 42.2084L39.2022 37.3672C40.7954 35.3756 41.7553 32.8556 41.7553 30.1166C41.7553 23.7116 36.5353 18.4941 30.1303 18.4941ZM30.1303 21.0775C35.1392 21.0775 39.1694 25.1078 39.1694 30.1166C39.1694 35.1255 35.1392 39.1659 30.1303 39.1659C25.1214 39.1659 21.0911 35.1255 21.0911 30.1166C21.0911 25.1078 25.1214 21.0775 30.1303 21.0775Z" fill="#023333"/>
</svg>
