<svg width="63" height="63" viewBox="0 0 63 63" fill="none" xmlns="http://www.w3.org/2000/svg">
<circle cx="31.5" cy="31.5" r="31.5" fill="#F6F6F6"/>
<path d="M24.1133 46.9375H37.8884C39.2969 46.9358 40.6472 46.3756 41.6431 45.3797C42.639 44.3838 43.1993 43.0335 43.2009 41.625V20.375C43.1993 18.9665 42.639 17.6163 41.6431 16.6203C40.6472 15.6244 39.2969 15.0642 37.8884 15.0625H24.1133C22.7048 15.0642 21.3545 15.6244 20.3586 16.6203C19.3627 17.6163 18.8024 18.9665 18.8008 20.375V41.625C18.8024 43.0335 19.3627 44.3838 20.3586 45.3797C21.3545 46.3756 22.7048 46.9358 24.1133 46.9375ZM20.9258 20.375C20.9267 19.5299 21.2628 18.7197 21.8604 18.1221C22.458 17.5245 23.2682 17.1884 24.1133 17.1875H37.8884C38.7335 17.1884 39.5437 17.5245 40.1413 18.1221C40.7389 18.7197 41.075 19.5299 41.0759 20.375V41.625C41.075 42.4701 40.7389 43.2803 40.1413 43.8779C39.5437 44.4755 38.7335 44.8116 37.8884 44.8125H24.1133C23.2682 44.8116 22.458 44.4755 21.8604 43.8779C21.2628 43.2803 20.9267 42.4701 20.9258 41.625V20.375Z" fill="#023333"/>
<path d="M26.75 23.5701H35.25C37.0378 23.5701 38.4375 22.478 38.4375 21.0835V19.6475C38.4375 19.3657 38.3256 19.0954 38.1263 18.8962C37.927 18.6969 37.6568 18.585 37.375 18.585C37.0932 18.585 36.823 18.6969 36.6237 18.8962C36.4244 19.0954 36.3125 19.3657 36.3125 19.6475L36.3167 21.0586C36.1796 21.1994 36.0125 21.3074 35.8277 21.3743C35.643 21.4413 35.4454 21.4655 35.25 21.4451H26.75C26.5575 21.4618 26.3636 21.4383 26.1807 21.376C25.9978 21.3138 25.8298 21.2141 25.6875 21.0835V19.6475C25.6875 19.3657 25.5756 19.0954 25.3763 18.8962C25.177 18.6969 24.9068 18.585 24.625 18.585C24.3432 18.585 24.073 18.6969 23.8737 18.8962C23.6744 19.0954 23.5625 19.3657 23.5625 19.6475V21.0835C23.5625 22.478 24.9622 23.5701 26.75 23.5701Z" fill="#023333"/>
<path d="M23.9174 31.2117C24.3162 31.6097 24.8565 31.8332 25.4199 31.8332C25.9832 31.8332 26.5236 31.6097 26.9223 31.2117L29.7799 28.3546C29.9791 28.1554 30.091 27.8852 30.091 27.6034C30.091 27.3216 29.9791 27.0514 29.7799 26.8522C29.5806 26.6529 29.3104 26.541 29.0286 26.541C28.7469 26.541 28.4766 26.6529 28.2774 26.8522L25.4199 29.7092L24.4269 28.7163C24.2277 28.517 23.9574 28.4051 23.6757 28.4051C23.3939 28.4051 23.1237 28.517 22.9244 28.7163C22.7252 28.9155 22.6133 29.1857 22.6133 29.4675C22.6133 29.7493 22.7252 30.0195 22.9245 30.2187L23.9174 31.2117Z" fill="#023333"/>
<path d="M33.0898 28.125C32.8081 28.125 32.5378 28.2369 32.3385 28.4362C32.1393 28.6355 32.0273 28.9057 32.0273 29.1875C32.0273 29.4693 32.1393 29.7395 32.3385 29.9388C32.5378 30.1381 32.8081 30.25 33.0898 30.25H38.3266C38.6084 30.25 38.8786 30.1381 39.0779 29.9388C39.2772 29.7395 39.3891 29.4693 39.3891 29.1875C39.3891 28.9057 39.2772 28.6355 39.0779 28.4362C38.8786 28.2369 38.6084 28.125 38.3266 28.125H33.0898Z" fill="#023333"/>
<path d="M38.3242 33.8477H24.1133C23.8315 33.8477 23.5612 33.9596 23.362 34.1589C23.1627 34.3581 23.0508 34.6284 23.0508 34.9102C23.0508 35.1919 23.1627 35.4622 23.362 35.6615C23.5612 35.8607 23.8315 35.9727 24.1133 35.9727H38.3242C38.606 35.9727 38.8763 35.8607 39.0755 35.6615C39.2748 35.4622 39.3867 35.1919 39.3867 34.9102C39.3867 34.6284 39.2748 34.3581 39.0755 34.1589C38.8763 33.9596 38.606 33.8477 38.3242 33.8477Z" fill="#023333"/>
<path d="M38.3242 39.5693H24.1133C23.8315 39.5693 23.5612 39.6813 23.362 39.8805C23.1627 40.0798 23.0508 40.35 23.0508 40.6318C23.0508 40.9136 23.1627 41.1839 23.362 41.3831C23.5612 41.5824 23.8315 41.6943 24.1133 41.6943H38.3242C38.606 41.6943 38.8763 41.5824 39.0755 41.3831C39.2748 41.1839 39.3867 40.9136 39.3867 40.6318C39.3867 40.35 39.2748 40.0798 39.0755 39.8805C38.8763 39.6813 38.606 39.5693 38.3242 39.5693Z" fill="#023333"/>
</svg>
