<svg width="12" height="12" viewBox="0 0 12 12" fill="none" xmlns="http://www.w3.org/2000/svg">
<path d="M4.94531 6.35156H7.05469V7.05469H4.94531V6.35156Z" fill="#C99E78"/>
<path d="M9.73544 7.05484H7.75781V7.4064C7.75781 7.60068 7.60052 7.75797 7.40625 7.75797H4.59375C4.39948 7.75797 4.24219 7.60068 4.24219 7.4064V7.05484H2.26456C1.81 7.05484 1.40799 6.76508 1.26407 6.33386L0 2.54102V10.2189C0 10.8004 0.473145 11.2736 1.05469 11.2736H10.9453C11.5269 11.2736 12 10.8004 12 10.2189V2.54129L10.7358 6.33386C10.592 6.76508 10.19 7.05484 9.73544 7.05484Z" fill="#C99E78"/>
<path d="M7.40683 0.726562H4.59433C4.01279 0.726562 3.53964 1.19971 3.53964 1.78125V2.13281H0.605469L1.93143 6.11124C1.97949 6.25507 2.11371 6.35156 2.26514 6.35156H4.24277V6C4.24277 5.80573 4.40006 5.64844 4.59433 5.64844H7.40683C7.60111 5.64844 7.75839 5.80573 7.75839 6V6.35156H9.73602C9.88745 6.35156 10.0217 6.25507 10.0697 6.11124L11.3958 2.13281H8.46152V1.78125C8.46152 1.19971 7.98837 0.726562 7.40683 0.726562ZM4.24277 2.13281V1.78125C4.24277 1.58725 4.40033 1.42969 4.59433 1.42969H7.40683C7.60083 1.42969 7.75839 1.58725 7.75839 1.78125V2.13281H4.24277Z" fill="#C99E78"/>
</svg>
