<svg width="82" height="60" viewBox="0 0 82 60" fill="none" xmlns="http://www.w3.org/2000/svg">
<rect x="21.707" y="13.1182" width="38.5882" height="33.7647" fill="white"/>
<path d="M64.9697 0.987305H17.0303C7.62474 0.987305 0 8.61204 0 18.0176V41.9822C0 51.3878 7.62474 59.0126 17.0303 59.0126H64.9697C74.3753 59.0126 82 51.3878 82 41.9822V18.0176C82 8.61204 74.3753 0.987305 64.9697 0.987305ZM53.4521 31.1659L31.0294 41.8602C30.4319 42.1452 29.7417 41.7095 29.7417 41.0477V18.9906C29.7417 18.3193 30.45 17.8842 31.0488 18.1877L53.4715 29.5504C54.1382 29.8882 54.1266 30.8443 53.4521 31.1659Z" fill="#F61C0D"/>
</svg>
