<?xml version="1.0" encoding="UTF-8" standalone="no"?>
<!DOCTYPE svg PUBLIC "-//W3C//DTD SVG 1.1//EN" "http://www.w3.org/Graphics/SVG/1.1/DTD/svg11.dtd">
<svg width="100%" height="100%" viewBox="0 0 800 520" version="1.1" xmlns="http://www.w3.org/2000/svg" xmlns:xlink="http://www.w3.org/1999/xlink" xml:space="preserve" xmlns:serif="http://www.serif.com/" style="fill-rule:evenodd;clip-rule:evenodd;stroke-linejoin:round;stroke-miterlimit:2;">
    <g transform="matrix(1,0,0,1,-1599.27,-280)">
        <g transform="matrix(1,0,0,1,1459.27,0)">
            <g transform="matrix(2.77778,0,0,2.77778,-616.551,-1719.18)">
                <path d="M365.648,906.705L365.648,892.705L371.408,892.705C372.648,892.705 373.712,892.905 374.598,893.305C375.485,893.705 376.168,894.278 376.648,895.025C377.128,895.771 377.368,896.658 377.368,897.685C377.368,898.711 377.128,899.595 376.648,900.335C376.168,901.075 375.485,901.641 374.598,902.035C373.712,902.428 372.648,902.625 371.408,902.625L367.088,902.625L368.248,901.445L368.248,906.705L365.648,906.705ZM374.808,906.705L371.268,901.625L374.048,901.625L377.608,906.705L374.808,906.705ZM368.248,901.725L367.088,900.485L371.288,900.485C372.435,900.485 373.298,900.238 373.878,899.745C374.458,899.251 374.748,898.565 374.748,897.685C374.748,896.791 374.458,896.105 373.878,895.625C373.298,895.145 372.435,894.905 371.288,894.905L367.088,894.905L368.248,893.625L368.248,901.725Z" style="fill:rgb(201,157,120);fill-rule:nonzero;"/>
                <path d="M384.668,898.525L391.628,898.525L391.628,900.665L384.668,900.665L384.668,898.525ZM384.868,904.525L392.768,904.525L392.768,906.705L382.268,906.705L382.268,892.705L392.488,892.705L392.488,894.885L384.868,894.885L384.868,904.525Z" style="fill:rgb(201,157,120);fill-rule:nonzero;"/>
                <path d="M404.148,906.905C403.082,906.905 402.092,906.728 401.178,906.375C400.265,906.021 399.472,905.521 398.798,904.875C398.125,904.228 397.602,903.465 397.228,902.585C396.855,901.705 396.668,900.745 396.668,899.705C396.668,898.665 396.855,897.705 397.228,896.825C397.602,895.945 398.128,895.181 398.808,894.535C399.488,893.888 400.282,893.388 401.188,893.035C402.095,892.681 403.088,892.505 404.168,892.505C405.315,892.505 406.362,892.701 407.308,893.095C408.255,893.488 409.055,894.071 409.708,894.845L408.028,896.425C407.522,895.878 406.955,895.468 406.328,895.195C405.702,894.921 405.022,894.785 404.288,894.785C403.555,894.785 402.885,894.905 402.278,895.145C401.672,895.385 401.145,895.725 400.698,896.165C400.252,896.605 399.905,897.125 399.658,897.725C399.412,898.325 399.288,898.985 399.288,899.705C399.288,900.425 399.412,901.085 399.658,901.685C399.905,902.285 400.252,902.805 400.698,903.245C401.145,903.685 401.672,904.025 402.278,904.265C402.885,904.505 403.555,904.625 404.288,904.625C405.022,904.625 405.702,904.488 406.328,904.215C406.955,903.941 407.522,903.525 408.028,902.965L409.708,904.565C409.055,905.325 408.255,905.905 407.308,906.305C406.362,906.705 405.308,906.905 404.148,906.905Z" style="fill:rgb(201,157,120);fill-rule:nonzero;"/>
                <path d="M414.208,906.705L414.208,892.705L419.968,892.705C421.208,892.705 422.272,892.905 423.158,893.305C424.045,893.705 424.728,894.278 425.208,895.025C425.688,895.771 425.928,896.658 425.928,897.685C425.928,898.711 425.688,899.595 425.208,900.335C424.728,901.075 424.045,901.641 423.158,902.035C422.272,902.428 421.208,902.625 419.968,902.625L415.648,902.625L416.808,901.445L416.808,906.705L414.208,906.705ZM423.368,906.705L419.828,901.625L422.608,901.625L426.168,906.705L423.368,906.705ZM416.808,901.725L415.648,900.485L419.848,900.485C420.995,900.485 421.858,900.238 422.438,899.745C423.018,899.251 423.308,898.565 423.308,897.685C423.308,896.791 423.018,896.105 422.438,895.625C421.858,895.145 420.995,894.905 419.848,894.905L415.648,894.905L416.808,893.625L416.808,901.725Z" style="fill:rgb(201,157,120);fill-rule:nonzero;"/>
                <path d="M436.848,906.905C434.928,906.905 433.425,906.365 432.338,905.285C431.252,904.205 430.708,902.645 430.708,900.605L430.708,892.705L433.308,892.705L433.308,900.505C433.308,901.945 433.618,902.991 434.238,903.645C434.858,904.298 435.735,904.625 436.868,904.625C438.002,904.625 438.875,904.298 439.488,903.645C440.102,902.991 440.408,901.945 440.408,900.505L440.408,892.705L442.968,892.705L442.968,900.605C442.968,902.645 442.425,904.205 441.338,905.285C440.252,906.365 438.755,906.905 436.848,906.905Z" style="fill:rgb(201,157,120);fill-rule:nonzero;"/>
                <rect x="448.608" y="892.705" width="2.6" height="14" style="fill:rgb(201,157,120);fill-rule:nonzero;"/>
                <path d="M459.828,906.705L459.828,894.905L455.188,894.905L455.188,892.705L467.068,892.705L467.068,894.905L462.428,894.905L462.428,906.705L459.828,906.705Z" style="fill:rgb(201,157,120);fill-rule:nonzero;"/>
            </g>
        </g>
        <g transform="matrix(1,0,0,1,1459.27,0)">
            <g id="Name" transform="matrix(1,0,0,1,0,80)">
                <g id="Frame" transform="matrix(32.0271,0,0,1,-4343.8,80.0545)">
                    <rect x="140" y="480" width="24.979" height="80" style="fill:none;"/>
                </g>
                <g transform="matrix(2.30319,0,0,2.30319,-1355.6,-799.646)">
                    <path d="M679.22,616.323C680.65,613.745 681.376,610.862 681.376,607.698C681.376,604.51 680.673,601.628 679.22,599.049C677.79,596.471 675.728,594.479 673.15,593.049C670.572,591.62 667.689,590.893 664.525,590.893L653.134,590.893L653.134,624.503L664.525,624.503C667.712,624.503 670.595,623.776 673.173,622.346C675.751,620.917 677.814,618.901 679.22,616.323ZM674.181,601.839C675.142,603.549 675.611,605.495 675.634,607.698C675.705,614.167 670.83,619.112 664.384,619.065L658.994,619.018L658.994,596.307L664.384,596.354C666.634,596.378 668.603,596.87 670.244,597.807C671.931,598.768 673.244,600.104 674.181,601.839Z" style="fill:rgb(201,157,120);fill-rule:nonzero;"/>
                    <path d="M722.725,624.503L728.584,624.503L722.983,590.893L717.709,590.893L707.561,613.393L697.483,590.893L692.28,590.893L686.584,624.503L692.444,624.503L696.311,601.674L706.506,624.503L708.709,624.503L718.881,601.651L722.725,624.503Z" style="fill:rgb(201,157,120);fill-rule:nonzero;"/>
                    <path d="M772.305,624.503L776.898,624.503L776.898,590.893L771.344,590.893L771.344,613.721L754.937,590.893L750.109,590.893L750.109,624.503L755.664,624.503L755.664,601.37L772.305,624.503Z" style="fill:rgb(201,157,120);fill-rule:nonzero;"/>
                    <path d="M809.505,624.503L815.692,624.503L801.606,590.893L796.731,590.893L783.044,624.503L789.137,624.503L792.231,616.159L806.364,616.159L809.505,624.503ZM799.239,598.745L804.184,610.815L794.411,610.815L799.239,598.745Z" style="fill:rgb(201,157,120);fill-rule:nonzero;"/>
                    <path d="M830.322,596.354L839.837,596.354L839.837,590.893L815.181,590.893L815.181,596.354L824.697,596.354L824.697,624.503L830.322,624.503L830.322,596.354Z" style="fill:rgb(201,157,120);fill-rule:nonzero;"/>
                    <rect x="846.264" y="590.893" width="4.945" height="33.609" style="fill:rgb(201,157,120);fill-rule:nonzero;"/>
                    <path d="M891.831,616.581C893.355,613.909 894.105,610.932 894.105,607.698C894.105,604.44 893.355,601.464 891.855,598.815C890.331,596.167 888.222,594.081 885.503,592.581C882.784,591.081 879.808,590.331 876.503,590.331C873.198,590.331 870.198,591.081 867.503,592.581C864.784,594.104 862.698,596.19 861.175,598.839C859.675,601.487 858.925,604.464 858.925,607.698C858.925,610.932 859.675,613.885 861.198,616.557C862.722,619.206 864.831,621.292 867.503,622.815C870.198,624.339 873.222,625.065 876.503,625.065C879.831,625.065 882.808,624.315 885.526,622.792C888.198,621.292 890.308,619.229 891.831,616.581ZM886.769,601.698C887.776,603.479 888.292,605.471 888.292,607.698C888.292,609.948 887.8,611.917 886.769,613.698C885.737,615.503 884.355,616.909 882.573,617.917C880.769,618.948 878.753,619.44 876.503,619.44C874.276,619.44 872.261,618.924 870.456,617.893C868.651,616.862 867.269,615.456 866.261,613.674C865.253,611.893 864.737,609.901 864.737,607.698C864.737,605.448 865.23,603.479 866.261,601.698C867.292,599.917 868.651,598.51 870.456,597.503C872.261,596.495 874.276,595.956 876.503,595.956C878.753,595.956 880.769,596.471 882.573,597.479C884.378,598.487 885.761,599.893 886.769,601.698Z" style="fill:rgb(201,157,120);fill-rule:nonzero;"/>
                    <path d="M924.39,624.503L928.984,624.503L928.984,590.893L923.43,590.893L923.43,613.721L907.023,590.893L902.195,590.893L902.195,624.503L907.75,624.503L907.75,601.37L924.39,624.503Z" style="fill:rgb(201,157,120);fill-rule:nonzero;"/>
                    <path d="M961.59,624.503L967.778,624.503L953.692,590.893L948.817,590.893L935.13,624.503L941.223,624.503L944.317,616.159L958.45,616.159L961.59,624.503ZM951.325,598.745L956.27,610.815L946.497,610.815L951.325,598.745Z" style="fill:rgb(201,157,120);fill-rule:nonzero;"/>
                    <path d="M973.97,624.503L992.931,624.503L992.931,619.065L979.478,619.065L979.478,590.893L973.97,590.893L973.97,624.503Z" style="fill:rgb(201,157,120);fill-rule:nonzero;"/>
                </g>
            </g>
        </g>
        <g transform="matrix(1,0,0,1,1459.27,0)">
            <g id="Icon" transform="matrix(1,0,0,1,-8.52651e-14,-49.9302)">
                <g id="Frame1" serif:id="Frame" transform="matrix(0.965969,0,0,0.965969,152.007,3.6082)">
                    <rect x="236.025" y="337.818" width="331.273" height="331.273" style="fill:none;"/>
                </g>
                <g id="Icon1" serif:id="Icon" transform="matrix(2.2101,0,0,2.2101,571.295,456.896)">
                    <path d="M0,29.894C-0.489,30.402 -0.959,30.922 -1.41,31.456C-3.663,34.127 -5.473,37.156 -6.748,40.406L-6.958,40.926L-7.504,40.819C-8.151,40.685 -8.806,40.578 -9.459,40.482C-10.938,40.279 -12.437,40.171 -13.928,40.171C-15.565,40.171 -17.19,40.291 -18.81,40.54C-19.571,40.654 -20.327,40.799 -21.082,40.971L-21.647,41.098L-21.851,40.565C-23.101,37.327 -24.878,34.312 -27.087,31.646C-27.589,31.042 -28.115,30.453 -28.655,29.887L-29.1,29.43L-28.655,28.967C-27.221,27.468 -25.926,25.825 -24.802,24.079C-23.628,22.257 -22.638,20.315 -21.856,18.29L-21.647,17.75L-21.089,17.876C-18.739,18.416 -16.34,18.683 -13.928,18.683C-11.77,18.683 -9.611,18.467 -7.497,18.036L-6.951,17.928L-6.748,18.449C-5.961,20.455 -4.971,22.377 -3.797,24.187C-2.686,25.894 -1.416,27.5 0,28.973L0.437,29.43L0,29.894ZM-37.783,-0.214C-33.632,-1.44 -29.404,-2.399 -25.126,-3.046L-24.517,-3.141L-24.377,-2.538C-23.646,0.687 -23.291,4 -23.469,7.308C-23.552,8.857 -23.748,10.399 -24.072,11.916L-24.237,12.709L-24.979,12.386C-26.446,11.764 -27.861,11.008 -29.201,10.139C-32.87,7.751 -35.949,4.534 -38.171,0.756L-38.603,0.027L-37.783,-0.214ZM-4.437,12.176C-4.774,10.609 -4.971,9.022 -5.047,7.421C-5.206,4.07 -4.825,0.706 -4.063,-2.557L-3.924,-3.161L-3.314,-3.065C1.136,-2.399 5.541,-1.389 9.852,-0.1L10.671,0.141L10.232,0.877C8.011,4.616 4.944,7.809 1.288,10.17C-0.235,11.155 -1.854,11.986 -3.543,12.659L-4.279,12.951L-4.437,12.176ZM-20.231,13.243C-19.807,11.358 -19.546,9.441 -19.444,7.51C-19.261,4.019 -19.597,0.522 -20.327,-2.894L-20.479,-3.63L-19.73,-3.694C-17.883,-3.859 -16.029,-3.96 -14.176,-3.992L-14.15,-3.992C-12.335,-3.96 -10.52,-3.865 -8.71,-3.707L-7.954,-3.643L-8.119,-2.9C-8.875,0.54 -9.243,4.082 -9.072,7.606C-8.982,9.548 -8.729,11.485 -8.304,13.382L-8.157,14.055L-8.837,14.176C-10.52,14.487 -12.221,14.639 -13.928,14.639C-15.877,14.639 -17.819,14.443 -19.724,14.042L-20.384,13.903L-20.231,13.243ZM-2.438,16.563C-0.375,15.769 1.605,14.76 3.466,13.567C7.973,10.653 11.705,6.641 14.276,1.924L14.549,1.429L15.089,1.62C16.93,2.28 18.751,2.998 20.555,3.765L21.043,3.968L20.948,4.496C19.977,9.885 18.573,15.198 16.694,20.346L16.567,20.689L16.212,20.772C11.769,21.749 7.585,23.679 3.941,26.402L3.472,26.751L3.065,26.338C1.765,25.005 0.597,23.552 -0.42,21.991C-1.353,20.549 -2.159,19.026 -2.813,17.439L-3.073,16.804L-2.438,16.563ZM14.073,26.751C12.626,29.938 10.981,33.042 9.159,36.032C5.51,42.005 1.155,47.491 -3.784,52.455L-4.933,53.603L-4.92,51.978C-4.889,45.395 -2.578,39.08 1.663,34.045C4.754,30.376 8.747,27.545 13.235,25.856L14.746,25.285L14.073,26.751ZM-8.868,57.203C-10.443,58.574 -12.062,59.901 -13.712,61.17L-14.118,61.481L-14.524,61.17C-16.314,59.792 -18.054,58.365 -19.749,56.879L-20.016,56.644L-19.971,56.289C-19.914,55.844 -19.863,55.4 -19.825,54.956C-19.743,54.016 -19.704,53.077 -19.704,52.13C-19.704,49.947 -19.92,47.763 -20.365,45.618L-20.498,44.97L-19.851,44.836C-19.305,44.716 -18.759,44.621 -18.213,44.532C-16.797,44.316 -15.362,44.214 -13.928,44.214C-12.62,44.214 -11.307,44.297 -10.012,44.475C-9.605,44.532 -9.198,44.602 -8.799,44.671L-8.126,44.798L-8.271,45.465C-8.735,47.656 -8.964,49.896 -8.964,52.13C-8.964,53.133 -8.913,54.136 -8.818,55.126C-8.773,55.628 -8.716,56.117 -8.646,56.613L-8.596,56.967L-8.868,57.203ZM-41.377,26.059C-37.028,27.799 -33.188,30.618 -30.198,34.216C-26.142,39.105 -23.888,45.179 -23.755,51.534L-23.717,53.209L-24.891,52.01C-29.652,47.166 -33.86,41.828 -37.396,36.032C-39.187,33.099 -40.799,30.072 -42.228,26.948L-42.919,25.437L-41.377,26.059ZM-44.894,20.46C-46.798,15.268 -48.214,9.911 -49.197,4.463L-49.292,3.943L-48.804,3.734C-46.899,2.927 -44.963,2.172 -43.015,1.48L-42.475,1.29L-42.208,1.791C-39.644,6.54 -35.917,10.577 -31.392,13.516C-29.722,14.601 -27.95,15.528 -26.104,16.29L-25.494,16.538L-25.741,17.154C-26.408,18.81 -27.227,20.404 -28.198,21.902C-29.22,23.495 -30.407,24.98 -31.734,26.332L-32.141,26.751L-32.604,26.402C-36.127,23.768 -40.146,21.889 -44.424,20.879L-44.772,20.797L-44.894,20.46ZM-21.736,-8.067C-22.796,-11.286 -24.154,-14.403 -25.723,-17.405L-25.792,-17.539L-25.799,-17.691C-25.938,-22.655 -25.088,-27.511 -22.955,-32.012C-20.993,-36.163 -18.086,-39.699 -14.633,-42.702L-14.201,-43.083L-13.763,-42.702C-10.31,-39.699 -7.408,-36.163 -5.44,-32.012C-3.308,-27.511 -2.457,-22.655 -2.604,-17.691L-2.604,-17.539L-2.673,-17.405C-4.241,-14.403 -5.605,-11.286 -6.679,-8.074L-6.85,-7.572L-7.377,-7.623C-9.624,-7.845 -11.878,-7.978 -14.118,-8.016L-14.194,-8.016C-16.479,-7.978 -18.765,-7.838 -21.038,-7.617L-21.564,-7.559L-21.736,-8.067ZM1.377,-16.434L1.402,-16.904C1.663,-22.751 0.717,-28.425 -1.791,-33.726C-4.355,-39.134 -8.266,-43.59 -12.95,-47.266L-14.201,-48.244L-15.445,-47.266C-20.13,-43.59 -24.04,-39.134 -26.604,-33.726C-29.112,-28.425 -30.059,-22.751 -29.798,-16.904L-29.778,-16.434L-29.569,-16.041C-28.16,-13.387 -26.909,-10.631 -25.906,-7.794L-25.64,-7.039L-26.427,-6.912C-35.53,-5.459 -44.538,-2.671 -52.917,1.15C-64.591,6.476 -75.655,14.093 -84.035,23.857L-86.555,26.79L-71.676,28.269C-68.609,28.574 -65.568,28.421 -62.572,27.704C-59.97,27.081 -57.525,26.059 -55.228,24.713C-55.71,23.431 -56.174,22.136 -56.605,20.835C-58.744,22.174 -61.036,23.203 -63.499,23.793C-66.058,24.403 -68.666,24.517 -71.282,24.263L-78.341,23.558L-77.344,22.568C-70.571,15.782 -62.445,10.266 -53.856,6.044L-53.076,5.664L-52.911,6.52C-50.74,17.725 -46.798,28.376 -40.844,38.127C-39.212,40.799 -37.44,43.383 -35.549,45.865L-35.086,46.474L-35.746,46.849C-40.438,49.509 -44.607,53.013 -48.035,57.171C-52.238,62.268 -55.24,68.248 -56.802,74.665L-57.652,78.138L-43.414,73.657C-41.307,72.997 -39.307,72.121 -37.415,70.978C-35.53,69.835 -33.835,68.464 -32.273,66.909C-32.007,66.642 -31.74,66.375 -31.461,66.128C-31.436,66.102 -31.404,66.077 -31.379,66.045C-32.388,65.157 -33.378,64.248 -34.35,63.316C-34.604,63.557 -34.863,63.798 -35.111,64.052C-36.444,65.378 -37.892,66.559 -39.498,67.538C-41.104,68.508 -42.824,69.239 -44.607,69.803L-51.883,72.095L-51.394,70.806C-49.852,66.788 -47.661,63.042 -44.925,59.729C-41.618,55.717 -37.549,52.378 -32.966,49.921L-32.489,49.667L-32.146,50.074C-27.15,55.888 -21.476,61.062 -15.318,65.614L-14.118,66.502L-12.919,65.614C-6.748,61.049 -1.061,55.863 3.936,50.036L4.284,49.629L4.754,49.877C9.369,52.34 13.464,55.692 16.79,59.729C19.525,63.042 21.716,66.788 23.259,70.806L23.754,72.095L16.479,69.803C14.688,69.239 12.975,68.508 11.369,67.538C9.756,66.559 8.309,65.378 6.982,64.052C6.703,63.773 6.424,63.506 6.138,63.246C5.167,64.179 4.177,65.086 3.167,65.982C3.225,66.026 3.275,66.077 3.332,66.128C3.605,66.375 3.878,66.642 4.139,66.909C5.7,68.464 7.401,69.835 9.286,70.978C11.172,72.121 13.178,72.997 15.279,73.657L29.518,78.138L28.673,74.665C27.111,68.248 24.103,62.268 19.9,57.171C16.453,52.994 12.258,49.471 7.541,46.804L6.874,46.43L7.338,45.827C9.223,43.351 10.976,40.781 12.601,38.127C18.548,28.383 22.49,17.744 24.661,6.552L24.826,5.695L25.607,6.082C34.164,10.291 42.265,15.794 49.013,22.549L50.009,23.545L42.722,24.263C40.106,24.517 37.49,24.403 34.933,23.787C32.47,23.197 30.419,22.245 28.299,20.988C27.867,22.289 27.41,23.583 26.915,24.866C29.143,26.135 31.505,27.1 33.999,27.697C36.995,28.415 40.036,28.567 43.096,28.269L58.235,26.79L55.709,23.85C47.33,14.087 36.266,6.469 24.592,1.144C16.181,-2.691 7.153,-5.477 -1.981,-6.931L-2.769,-7.058L-2.502,-7.813C-1.486,-10.638 -0.235,-13.387 1.174,-16.041L1.377,-16.434Z" style="fill:rgb(2,51,51);"/>
                </g>
            </g>
        </g>
    </g>
</svg>
