<?xml version="1.0" encoding="utf-8"?>
<!-- Generator: Adobe Illustrator 26.0.1, SVG Export Plug-In . SVG Version: 6.00 Build 0)  -->
<svg version="1.1" id="Слой_1" xmlns="http://www.w3.org/2000/svg" xmlns:xlink="http://www.w3.org/1999/xlink" x="0px" y="0px"
	 viewBox="0 0 185.83 214.7" style="enable-background:new 0 0 185.83 214.7;" xml:space="preserve">
<style type="text/css">
	.st0{fill:#C99D78;}
	.st1{fill-rule:evenodd;clip-rule:evenodd;fill:#023333;}
</style>
<g>
	<g>
		<path class="st0" d="M5.2,211.97c0-0.28-0.09-0.51-0.27-0.7c-0.18-0.19-0.41-0.34-0.69-0.44c-0.28-0.11-0.59-0.21-0.94-0.29
			c-0.34-0.09-0.69-0.19-1.03-0.32c-0.34-0.13-0.65-0.28-0.94-0.46c-0.28-0.18-0.51-0.43-0.69-0.76c-0.18-0.33-0.27-0.72-0.27-1.18
			c0-0.7,0.27-1.29,0.81-1.76c0.54-0.47,1.27-0.71,2.18-0.71c0.34,0,0.66,0.04,0.97,0.12c0.31,0.08,0.57,0.18,0.77,0.29
			c0.2,0.11,0.38,0.22,0.54,0.34c0.15,0.11,0.27,0.21,0.34,0.29l0.1,0.13l-0.91,0.91c-0.02-0.02-0.04-0.05-0.07-0.09
			c-0.03-0.04-0.1-0.1-0.22-0.19s-0.23-0.17-0.36-0.23c-0.13-0.07-0.3-0.13-0.51-0.19c-0.21-0.05-0.43-0.08-0.66-0.08
			c-0.47,0-0.85,0.12-1.13,0.35c-0.29,0.23-0.43,0.51-0.43,0.82c0,0.28,0.09,0.51,0.27,0.7c0.18,0.19,0.41,0.34,0.69,0.45
			c0.28,0.11,0.59,0.21,0.94,0.29s0.69,0.19,1.03,0.32c0.34,0.12,0.66,0.28,0.94,0.45c0.28,0.18,0.51,0.43,0.69,0.76
			c0.18,0.33,0.27,0.72,0.27,1.18c0,0.8-0.29,1.46-0.86,1.97c-0.58,0.51-1.37,0.76-2.39,0.76c-0.41,0-0.81-0.05-1.18-0.15
			c-0.38-0.1-0.68-0.22-0.92-0.36s-0.45-0.28-0.63-0.42c-0.18-0.14-0.31-0.26-0.39-0.35l-0.13-0.16l0.91-0.91
			c0.02,0.03,0.05,0.06,0.09,0.11c0.04,0.05,0.13,0.13,0.27,0.25c0.14,0.12,0.29,0.23,0.46,0.32c0.16,0.09,0.38,0.17,0.66,0.25
			c0.27,0.07,0.56,0.11,0.87,0.11c0.56,0,1.01-0.14,1.33-0.41C5.04,212.71,5.2,212.37,5.2,211.97z"/>
		<path class="st0" d="M9.88,205.47h6.89v1.3h-2.73v7.8h-1.43v-7.8H9.88V205.47z"/>
		<path class="st0" d="M22.94,212.67c0.48,0.48,1.04,0.73,1.69,0.73c0.65,0,1.21-0.24,1.69-0.73c0.48-0.49,0.71-1.07,0.71-1.74
			v-5.47h1.43v5.47c0,1.04-0.37,1.93-1.12,2.66c-0.75,0.73-1.65,1.1-2.72,1.1c-1.06,0-1.97-0.37-2.72-1.1
			c-0.75-0.74-1.12-1.62-1.12-2.66v-5.47h1.43v5.47C22.23,211.61,22.46,212.19,22.94,212.67z"/>
		<path class="st0" d="M33.53,205.47h3.19c1.26,0,2.35,0.45,3.26,1.35c0.91,0.9,1.36,1.97,1.36,3.21c0,1.24-0.45,2.31-1.36,3.21
			c-0.91,0.9-1.99,1.35-3.26,1.35h-3.19V205.47z M36.72,206.77h-1.76v6.5h1.76c0.88,0,1.63-0.31,2.25-0.94
			c0.62-0.63,0.93-1.4,0.93-2.31c0-0.91-0.31-1.68-0.93-2.31C38.35,207.08,37.6,206.77,36.72,206.77z"/>
		<path class="st0" d="M46.01,205.47l2.47,4.35l2.47-4.35h1.56l-3.32,5.85v3.25h-1.43v-3.25l-3.31-5.85H46.01z"/>
		<path class="st0" d="M56.15,213.26c0.17,0.17,0.25,0.37,0.25,0.59c0,0.23-0.08,0.42-0.25,0.59c-0.17,0.17-0.37,0.25-0.59,0.25
			c-0.23,0-0.42-0.08-0.59-0.25c-0.17-0.17-0.25-0.36-0.25-0.59c0-0.23,0.08-0.42,0.25-0.59c0.17-0.17,0.37-0.25,0.59-0.25
			C55.78,213.01,55.98,213.09,56.15,213.26z"/>
		<path class="st0" d="M65.1,205.47h6.89v1.3h-2.73v7.8h-1.43v-7.8H65.1V205.47z"/>
		<path class="st0" d="M76.15,214.57v-9.1h3.83c0.84,0,1.54,0.27,2.1,0.81c0.55,0.54,0.83,1.2,0.83,1.99c0,0.37-0.06,0.72-0.19,1.04
			c-0.13,0.32-0.28,0.58-0.46,0.76c-0.18,0.19-0.36,0.35-0.53,0.49c-0.18,0.14-0.33,0.24-0.46,0.29l-0.18,0.08l2.08,3.64h-1.56
			l-1.95-3.51h-2.08v3.51H76.15z M81.05,209.33c0.29-0.29,0.43-0.64,0.43-1.07c0-0.42-0.14-0.78-0.43-1.07
			c-0.29-0.29-0.64-0.43-1.06-0.43h-2.41v2.99h2.41C80.41,209.76,80.77,209.61,81.05,209.33z"/>
		<path class="st0" d="M86.81,214.57l3.77-9.1h1.43l3.77,9.1h-1.49l-0.98-2.41h-4.03l-0.98,2.41H86.81z M91.3,207.09l-1.5,3.77h2.99
			L91.3,207.09z"/>
		<path class="st0" d="M101.56,214.57l-3.58-9.1h1.5l2.79,7.28l2.8-7.28h1.49l-3.57,9.1H101.56z"/>
		<path class="st0" d="M112.28,213.27h5.14v1.3h-6.56v-9.1h6.44v1.3h-5.01v2.41h3.97v1.3h-3.97V213.27z"/>
		<path class="st0" d="M127.81,214.57h-5.85v-9.1h1.43v7.8h4.42V214.57z"/>
		<path class="st0" d="M132.89,213.26c0.17,0.17,0.25,0.37,0.25,0.59c0,0.23-0.08,0.42-0.25,0.59c-0.17,0.17-0.37,0.25-0.59,0.25
			c-0.23,0-0.42-0.08-0.59-0.25c-0.17-0.17-0.25-0.36-0.25-0.59c0-0.23,0.09-0.42,0.25-0.59c0.17-0.17,0.37-0.25,0.59-0.25
			C132.52,213.01,132.72,213.09,132.89,213.26z"/>
		<path class="st0" d="M144.32,213.27h5.14v1.3h-6.56v-9.1h6.44v1.3h-5.01v2.41h3.97v1.3h-3.97V213.27z"/>
		<path class="st0" d="M152.96,214.57l3.77-9.1h1.43l3.77,9.1h-1.49l-0.98-2.41h-4.03l-0.98,2.41H152.96z M157.45,207.09l-1.5,3.77
			h2.99L157.45,207.09z"/>
		<path class="st0" d="M166.09,214.57v-9.1h3.83c0.84,0,1.54,0.27,2.1,0.81c0.55,0.54,0.83,1.2,0.83,1.99
			c0,0.37-0.06,0.72-0.19,1.04c-0.13,0.32-0.28,0.58-0.46,0.76c-0.18,0.19-0.36,0.35-0.53,0.49c-0.18,0.14-0.33,0.24-0.46,0.29
			l-0.18,0.08l2.08,3.64h-1.56l-1.95-3.51h-2.08v3.51H166.09z M170.99,209.33c0.29-0.29,0.43-0.64,0.43-1.07
			c0-0.42-0.14-0.78-0.43-1.07c-0.29-0.29-0.64-0.43-1.06-0.43h-2.41v2.99h2.41C170.35,209.76,170.7,209.61,170.99,209.33z"/>
		<path class="st0" d="M184.09,205.47h1.43v9.1h-1.23l-5.07-6.56v6.56h-1.43v-9.1h1.23l5.07,6.57V205.47z"/>
	</g>
	<g>
		<path class="st0" d="M18.06,192.93C6.02,192.93,0,187.09,0,175.41v-25.68h7.44v24c0,4.32,0.84,7.46,2.52,9.42
			c1.68,1.96,4.38,2.94,8.1,2.94c3.72,0,6.43-0.98,8.13-2.94c1.7-1.96,2.55-5.1,2.55-9.42v-24h7.38v25.68
			C36.12,187.09,30.1,192.93,18.06,192.93z"/>
		<path class="st0" d="M78.86,192.15l-4.02-8.94H55.46l-4.02,8.94h-7.98l19.32-42.72h4.68l19.38,42.72H78.86z M65.12,159.39
			l-3.48,8.88l-3.6,8.76h14.22l-3.66-8.76L65.12,159.39z"/>
		<path class="st0" d="M136.97,149.49h3.9v42.66h-7.26v-26.46l-13.26,18.96h-2.94l-13.26-18.78v26.28h-7.26v-42.66h3.9l18.18,25.68
			L136.97,149.49z"/>
		<path class="st0" d="M155.29,192.15v-42.42h30.54v6.6h-23.22v13.98h19.86v6.6h-19.86v15.24H155.29z"/>
	</g>
	<g>
		<path class="st1" d="M108.31,31.81l0.03-0.47c0.26-5.85-0.69-11.52-3.19-16.82c-2.56-5.41-6.47-9.86-11.16-13.54L92.74,0
			l-1.24,0.98c-4.68,3.68-8.6,8.13-11.16,13.54c-2.51,5.3-3.45,10.98-3.19,16.82l0.02,0.47l0.21,0.39c1.41,2.65,2.66,5.41,3.66,8.25
			l0.27,0.76l-0.79,0.13c-9.1,1.45-18.11,4.24-26.49,8.06C42.35,54.72,31.28,62.34,22.9,72.1l-2.52,2.93l14.88,1.48
			c3.07,0.3,6.11,0.15,9.1-0.57c2.6-0.62,5.05-1.64,7.34-2.99c-0.48-1.28-0.95-2.58-1.38-3.88c-2.14,1.34-4.43,2.37-6.89,2.96
			c-2.56,0.61-5.17,0.72-7.78,0.47l-7.06-0.7l1-0.99c6.77-6.79,14.9-12.3,23.49-16.52l0.78-0.38l0.17,0.86
			c2.17,11.2,6.11,21.86,12.07,31.61c1.63,2.67,3.4,5.26,5.29,7.74l0.46,0.61l-0.66,0.37c-4.69,2.66-8.86,6.16-12.29,10.32
			c-4.2,5.1-7.2,11.08-8.77,17.5l-0.85,3.47l14.24-4.48c2.11-0.66,4.11-1.54,6-2.68c1.89-1.14,3.58-2.51,5.14-4.07
			c0.27-0.27,0.53-0.53,0.81-0.78c0.03-0.03,0.06-0.05,0.08-0.08c-1.01-0.89-2-1.8-2.97-2.73c-0.25,0.24-0.51,0.48-0.76,0.74
			c-1.33,1.33-2.78,2.51-4.39,3.49c-1.61,0.97-3.33,1.7-5.11,2.27l-7.27,2.29l0.49-1.29c1.54-4.02,3.73-7.76,6.47-11.08
			c3.31-4.01,7.38-7.35,11.96-9.81l0.48-0.25l0.34,0.41c5,5.81,10.67,10.99,16.83,15.54l1.2,0.89l1.2-0.89
			c6.17-4.56,11.86-9.75,16.85-15.58l0.35-0.41l0.47,0.25c4.61,2.46,8.71,5.81,12.04,9.85c2.74,3.31,4.93,7.06,6.47,11.08l0.5,1.29
			l-7.27-2.29c-1.79-0.56-3.5-1.29-5.11-2.27c-1.61-0.98-3.06-2.16-4.39-3.49c-0.28-0.28-0.56-0.55-0.84-0.81
			c-0.97,0.93-1.96,1.84-2.97,2.74c0.06,0.04,0.11,0.1,0.17,0.15c0.27,0.25,0.55,0.51,0.81,0.78c1.56,1.56,3.26,2.93,5.15,4.07
			c1.89,1.14,3.89,2.02,5.99,2.68l14.24,4.48l-0.84-3.47c-1.56-6.42-4.57-12.4-8.77-17.5c-3.45-4.18-7.64-7.7-12.36-10.37
			l-0.67-0.37l0.46-0.6c1.89-2.48,3.64-5.05,5.26-7.7c5.95-9.74,9.89-20.38,12.06-31.57l0.17-0.86l0.78,0.39
			c8.56,4.21,16.66,9.71,23.4,16.47l1,1l-7.29,0.72c-2.62,0.25-5.23,0.14-7.79-0.48c-2.46-0.59-4.51-1.54-6.63-2.8
			c-0.43,1.3-0.89,2.6-1.38,3.88c2.23,1.27,4.59,2.23,7.08,2.83c3,0.72,6.04,0.87,9.1,0.57l15.14-1.48l-2.53-2.94
			c-8.38-9.76-19.44-17.38-31.12-22.71c-8.41-3.83-17.44-6.62-26.57-8.07l-0.79-0.13l0.27-0.76c1.02-2.82,2.27-5.57,3.68-8.23
			L108.31,31.81z M85.2,40.18c-1.06-3.22-2.42-6.34-3.99-9.34l-0.07-0.13l-0.01-0.15c-0.14-4.96,0.71-9.82,2.84-14.32
			c1.96-4.15,4.87-7.69,8.32-10.69l0.43-0.38l0.44,0.38c3.45,3,6.35,6.54,8.32,10.69c2.13,4.5,2.98,9.36,2.84,14.32v0.15l-0.07,0.13
			c-1.57,3-2.93,6.12-4.01,9.33l-0.17,0.5l-0.53-0.05c-2.25-0.22-4.5-0.36-6.74-0.39h-0.08c-2.29,0.04-4.57,0.18-6.84,0.4
			l-0.53,0.06L85.2,40.18z M62.04,68.7c-1.9-5.19-3.32-10.55-4.3-16l-0.1-0.52l0.49-0.21c1.9-0.81,3.84-1.56,5.79-2.25l0.54-0.19
			l0.27,0.5c2.56,4.75,6.29,8.79,10.82,11.72c1.67,1.09,3.44,2.01,5.29,2.77l0.61,0.25L81.2,65.4c-0.67,1.66-1.49,3.25-2.46,4.75
			c-1.02,1.59-2.21,3.08-3.54,4.43l-0.41,0.42l-0.46-0.35c-3.52-2.63-7.54-4.51-11.82-5.52l-0.35-0.08L62.04,68.7z M65.56,74.3
			c4.35,1.74,8.19,4.56,11.18,8.16c4.06,4.89,6.31,10.96,6.44,17.32l0.04,1.68l-1.17-1.2c-4.76-4.84-8.97-10.18-12.51-15.98
			c-1.79-2.93-3.4-5.96-4.83-9.08l-0.69-1.51L65.56,74.3z M98.07,105.45c-1.57,1.37-3.19,2.7-4.84,3.97l-0.41,0.31l-0.41-0.31
			c-1.79-1.38-3.53-2.81-5.22-4.29l-0.27-0.23l0.04-0.36c0.06-0.44,0.11-0.89,0.15-1.33c0.08-0.94,0.12-1.88,0.12-2.82
			c0-2.18-0.22-4.37-0.66-6.51l-0.13-0.65l0.65-0.13c0.55-0.12,1.09-0.22,1.64-0.3c1.42-0.22,2.85-0.32,4.28-0.32
			c1.31,0,2.62,0.08,3.92,0.26c0.41,0.06,0.81,0.13,1.21,0.2l0.67,0.13l-0.15,0.67c-0.46,2.19-0.69,4.43-0.69,6.67
			c0,1,0.05,2.01,0.15,3c0.04,0.5,0.1,0.99,0.17,1.49l0.05,0.36L98.07,105.45z M121.01,74.99c-1.45,3.19-3.09,6.29-4.91,9.28
			c-3.65,5.97-8,11.46-12.94,16.42l-1.15,1.15l0.01-1.62c0.03-6.58,2.34-12.9,6.58-17.93c3.09-3.67,7.08-6.5,11.57-8.19l1.51-0.57
			L121.01,74.99z M104.5,64.81c2.06-0.79,4.04-1.8,5.9-3c4.51-2.91,8.24-6.93,10.81-11.64l0.27-0.5l0.54,0.19
			c1.84,0.66,3.66,1.38,5.47,2.15l0.49,0.2l-0.1,0.53c-0.97,5.39-2.37,10.7-4.25,15.85l-0.13,0.34l-0.36,0.08
			c-4.44,0.98-8.63,2.91-12.27,5.63l-0.47,0.35L110,74.58c-1.3-1.33-2.47-2.79-3.49-4.35c-0.93-1.44-1.74-2.96-2.39-4.55l-0.26-0.63
			L104.5,64.81z M86.71,61.49c0.43-1.89,0.69-3.8,0.79-5.73c0.18-3.49-0.15-6.99-0.88-10.4l-0.15-0.74l0.75-0.06
			c1.85-0.17,3.7-0.27,5.55-0.3h0.01h0.01c1.82,0.03,3.63,0.13,5.44,0.29l0.76,0.06l-0.17,0.74c-0.76,3.44-1.12,6.98-0.95,10.51
			c0.09,1.94,0.34,3.88,0.77,5.78l0.15,0.67l-0.68,0.12c-1.68,0.31-3.38,0.46-5.09,0.46c-1.95,0-3.89-0.2-5.8-0.6l-0.66-0.14
			L86.71,61.49z M102.5,60.42c-0.34-1.57-0.53-3.15-0.61-4.75c-0.16-3.35,0.22-6.72,0.98-9.98l0.14-0.6l0.61,0.1
			c4.45,0.67,8.86,1.68,13.17,2.96l0.82,0.24l-0.44,0.74c-2.22,3.74-5.29,6.93-8.94,9.29c-1.52,0.98-3.14,1.82-4.83,2.49l-0.74,0.29
			L102.5,60.42z M69.15,48.03c4.15-1.23,8.38-2.18,12.66-2.83l0.61-0.1l0.14,0.6c0.73,3.22,1.09,6.54,0.91,9.85
			c-0.08,1.55-0.28,3.09-0.6,4.61l-0.17,0.79l-0.74-0.32c-1.47-0.62-2.88-1.38-4.22-2.25C74.07,56,70.99,52.78,68.77,49l-0.43-0.73
			L69.15,48.03z M106.94,78.14c-0.49,0.51-0.96,1.03-1.41,1.56c-2.25,2.67-4.06,5.7-5.34,8.95l-0.21,0.52l-0.55-0.11
			c-0.65-0.13-1.3-0.24-1.96-0.34c-1.48-0.2-2.98-0.31-4.47-0.31c-1.64,0-3.26,0.12-4.88,0.37c-0.76,0.11-1.52,0.26-2.27,0.43
			l-0.56,0.13l-0.2-0.53c-1.25-3.24-3.03-6.25-5.24-8.92c-0.5-0.6-1.03-1.19-1.57-1.76l-0.44-0.46l0.44-0.46
			c1.43-1.5,2.73-3.14,3.85-4.89c1.17-1.82,2.16-3.76,2.95-5.79l0.21-0.54l0.56,0.13c2.35,0.54,4.75,0.81,7.16,0.81
			c2.16,0,4.32-0.22,6.43-0.65l0.55-0.11l0.2,0.52c0.79,2.01,1.78,3.93,2.95,5.74c1.11,1.71,2.38,3.31,3.8,4.79l0.44,0.46
			L106.94,78.14z"/>
	</g>
</g>
</svg>
