<svg width="70" height="58" viewBox="0 0 70 58" fill="none" xmlns="http://www.w3.org/2000/svg">
<path d="M63.5569 9.33162H56.5917C55.9662 9.33162 55.3782 9.08813 54.9361 8.64584L48.8209 2.53082C47.604 1.31389 45.986 0.643555 44.265 0.643555H25.7488C24.0278 0.643555 22.4096 1.31389 21.1932 2.53068L15.0779 8.64584C14.6357 9.08799 14.0477 9.33162 13.4222 9.33162H6.45531C2.90391 9.33162 0.0135355 12.221 0.0121683 15.7726L3.11506e-07 50.9111C-0.00109344 54.4707 2.8782 57.3564 6.44314 57.3564H63.5569C67.1096 57.3564 70 54.466 70 50.9134V15.7748C70 12.2165 67.1214 9.33162 63.5569 9.33162ZM65.8984 50.9133C65.8984 52.2043 64.8479 53.2547 63.5569 53.2547H6.44314C5.14965 53.2547 4.10102 52.2077 4.10156 50.9123L4.11373 15.7739C4.11428 14.4832 5.16469 13.433 6.45531 13.433H13.4222C15.1432 13.433 16.7613 12.763 17.9782 11.5459L24.0934 5.43076C24.5355 4.98861 25.1234 4.74498 25.7488 4.74498H44.265C44.8904 4.74498 45.4784 4.98848 45.9207 5.43104L52.0357 11.5458C53.2524 12.7627 54.8704 13.433 56.5917 13.433H63.5569C64.8502 13.433 65.8984 14.4796 65.8984 15.7746V50.9133Z" fill="#D8D8D8"/>
<path d="M35.007 15.9199C26.6104 15.9199 19.7793 22.7511 19.7793 31.1476C19.7793 39.5442 26.6104 46.3754 35.007 46.3754C43.4036 46.3754 50.2348 39.5442 50.2348 31.1476C50.2348 22.7511 43.4036 15.9199 35.007 15.9199ZM35.007 42.2738C28.872 42.2738 23.8809 37.2826 23.8809 31.1476C23.8809 25.0127 28.872 20.0215 35.007 20.0215C41.142 20.0215 46.1332 25.0127 46.1332 31.1476C46.1332 37.2826 41.142 42.2738 35.007 42.2738Z" fill="#D8D8D8"/>
<path d="M6.45703 4.74512H10.8494C11.982 4.74512 12.9002 3.82691 12.9002 2.69434C12.9002 1.56176 11.982 0.643555 10.8494 0.643555H6.45703C5.32445 0.643555 4.40625 1.56176 4.40625 2.69434C4.40625 3.82691 5.32432 4.74512 6.45703 4.74512Z" fill="#D8D8D8"/>
</svg>
