<svg width="10" height="10" viewBox="0 0 10 10" fill="none" xmlns="http://www.w3.org/2000/svg">
<path d="M8.82812 2.36328V0.605469H1.17188C0.525703 0.605469 0 1.13117 0 1.77734V7.92969C0 8.7374 0.657129 9.39453 1.46484 9.39453H10V2.36328H8.82812ZM1.17188 1.19141H8.24219V2.36328H1.17188C0.848789 2.36328 0.585938 2.10043 0.585938 1.77734C0.585938 1.45426 0.848789 1.19141 1.17188 1.19141ZM9.41406 7.05078H7.94922C7.46459 7.05078 7.07031 6.6565 7.07031 6.17188C7.07031 5.68725 7.46459 5.29297 7.94922 5.29297H9.41406V7.05078ZM9.41406 4.70703H7.94922C7.1415 4.70703 6.48438 5.36416 6.48438 6.17188C6.48438 6.97959 7.1415 7.63672 7.94922 7.63672H9.41406V8.80859H1.46484C0.980215 8.80859 0.585938 8.41432 0.585938 7.92969V2.79156C0.758457 2.89162 0.958496 2.94922 1.17188 2.94922C1.60055 2.94922 8.7818 2.94922 9.41406 2.94922V4.70703Z" fill="#033333"/>
<path d="M8.24219 5.87891H7.65625V6.46484H8.24219V5.87891Z" fill="#033333"/>
</svg>
